<svg xmlns="http://www.w3.org/2000/svg" viewBox="0 0 14.92 14.85"><defs><style>.cls-1{fill:#656d78;}</style></defs><g id="Capa_2" data-name="Capa 2"><g id="Capa_2-2" data-name="Capa 2"><path class="cls-1" d="M7.46,14.85c-1.15,0-5.08-.08-7.14-1L0,13.71v-.36c0-1.51.81-3.53,2-4.14.36-.19.8-.37,1.29-.58S4.42,8.17,5,7.9a4,4,0,0,1-.4-.9,3.16,3.16,0,0,1-.88-2A1.32,1.32,0,0,1,4,4l0,0V3a3.07,3.07,0,0,1,.85-2A3.52,3.52,0,0,1,7.46,0a3.52,3.52,0,0,1,2.61.94A3.09,3.09,0,0,1,10.92,3l0,.95V4a1.37,1.37,0,0,1,.29,1,3.2,3.2,0,0,1-.89,2,3.64,3.64,0,0,1-.4.9c.55.27,1.13.52,1.66.73l.08,0c.44.19.85.36,1.21.54h0c1.21.61,2,2.63,2,4.14v.36l-.32.15C12.54,14.77,8.62,14.85,7.46,14.85ZM.52,13.37h0c2,.88,5.8.94,6.92.94s5-.06,6.93-.94v0c0-1.32-.74-3.18-1.74-3.68-.34-.17-.74-.34-1.17-.52l-.09,0c-.61-.26-1.31-.55-2-.9l-.26-.14.18-.25a2.91,2.91,0,0,0,.5-1l0-.07,0-.05A2.66,2.66,0,0,0,10.72,5c0-.35,0-.54-.14-.63h0l0,.18a1.57,1.57,0,0,1,.05.46A2.62,2.62,0,0,1,9.84,6.7h0a3,3,0,0,1-.62,1.22A2.75,2.75,0,0,1,5.8,8a2.86,2.86,0,0,1-.71-1.31h0A2.61,2.61,0,0,1,4.26,5a1.17,1.17,0,0,1,0-.47l.06-.17c-.13.12-.16.3-.16.64A2.65,2.65,0,0,0,5,6.68l0,.05,0,.06a3.14,3.14,0,0,0,.5,1l.19.25-.27.14c-.65.35-1.34.64-2,.9s-.91.38-1.26.55c-1,.5-1.74,2.36-1.74,3.68ZM4.78,4.84V5a2.14,2.14,0,0,0,.65,1.35l.12.11,0,.16a2.57,2.57,0,0,0,.56,1.06,2.22,2.22,0,0,0,2.72-.09,2.58,2.58,0,0,0,.46-1l0-.16.12-.11A2.09,2.09,0,0,0,10.14,5V4.84H9.87L9.83,3a2.06,2.06,0,0,0-.54-1.3,2.51,2.51,0,0,0-1.83-.61,2.47,2.47,0,0,0-1.83.62A2,2,0,0,0,5.1,3l0,1.85ZM7.46.57a3,3,0,0,1,2.2.76A2.57,2.57,0,0,1,10.35,3l0,1.32h.18l-.09,0-.05-.18V3a2.55,2.55,0,0,0-.7-1.69A3,3,0,0,0,7.46.52a3,3,0,0,0-2.24.79A2.58,2.58,0,0,0,4.52,3V4.22l-.13.08h.17L4.57,3a2.53,2.53,0,0,1,.69-1.64A3,3,0,0,1,7.46.57Zm0,13.71a21.57,21.57,0,0,1-6.72-.87l-.17-.07v-.18a4.45,4.45,0,0,1,1.7-3.44c.37-.19.84-.38,1.26-.56a19.26,19.26,0,0,0,2.13-1l.14-.08.13.09a2.9,2.9,0,0,0,1.5.45A3,3,0,0,0,9,8.17l.13-.08.14.07a19.36,19.36,0,0,0,2.15,1c.48.2.9.38,1.25.56a4.48,4.48,0,0,1,1.71,3.43v.19l-.18.07A21.57,21.57,0,0,1,7.46,14.28ZM1.11,13a22.21,22.21,0,0,0,6.35.76A22.21,22.21,0,0,0,13.81,13a4.05,4.05,0,0,0-1.4-2.81c-.34-.16-.76-.34-1.22-.53-.62-.26-1.38-.58-2.08-1a3.32,3.32,0,0,1-1.67.46A3.37,3.37,0,0,1,5.79,8.7a21.49,21.49,0,0,1-2,.94c-.42.17-.88.37-1.23.54A4,4,0,0,0,1.11,13Z"/></g></g></svg>