<svg xmlns="http://www.w3.org/2000/svg" viewBox="0 0 14.67 14.67"><defs><style>.cls-1{fill:#656d78;}</style></defs><g id="Capa_2" data-name="Capa 2"><g id="Capa_2-2" data-name="Capa 2"><path class="cls-1" d="M14.67,7.34A.38.38,0,0,0,14.29,7h-.61l.58-.57a.39.39,0,0,0,0-.55.38.38,0,0,0-.54,0L12.59,7H12l.57-.57a.39.39,0,0,0,0-.55.38.38,0,0,0-.54,0L10.94,7H8.27l1.88-1.89h1.59a.38.38,0,0,0,.38-.38.39.39,0,0,0-.38-.39h-.82l.41-.4h1.58a.39.39,0,1,0,0-.77H12.1l.42-.43a.36.36,0,0,0,0-.54.38.38,0,0,0-.54,0l-.43.43V1.76a.38.38,0,0,0-.38-.38.39.39,0,0,0-.39.38V3.35l-.4.4V2.93a.39.39,0,0,0-.77,0V4.52L7.72,6.41V3.74L8.84,2.62a.39.39,0,0,0,0-.55.38.38,0,0,0-.54,0l-.58.58V2.08L8.84,1a.39.39,0,0,0,0-.55.38.38,0,0,0-.54,0L7.72,1V.38A.39.39,0,0,0,7,.38V1L6.38.41A.39.39,0,0,0,5.83,1L7,2.08v.57l-.57-.58a.39.39,0,0,0-.55.55L7,3.74V6.41L5.06,4.52V2.93a.38.38,0,0,0-.38-.38.39.39,0,0,0-.39.38v.82l-.4-.4V1.76a.39.39,0,0,0-.77,0v.82l-.43-.43a.38.38,0,0,0-.54.54l.43.43H1.76a.39.39,0,0,0,0,.77H3.35l.4.4H2.93a.39.39,0,0,0-.38.39.38.38,0,0,0,.38.38H4.52L6.41,7H3.74L2.62,5.83a.39.39,0,0,0-.55.55L2.65,7H2.08L1,5.83a.39.39,0,0,0-.55.55L1,7H.38a.39.39,0,0,0,0,.77H1L.41,8.3A.38.38,0,0,0,.69,9,.38.38,0,0,0,1,8.84L2.08,7.72h.57l-.58.58a.39.39,0,0,0,.55.54L3.74,7.72H6.41L4.52,9.61H2.93a.39.39,0,0,0,0,.77h.82l-.4.4H1.76a.39.39,0,0,0,0,.77h.82L2.15,12a.38.38,0,0,0,0,.54.36.36,0,0,0,.54,0l.43-.42v.81a.39.39,0,1,0,.77,0V11.33l.4-.41v.82a.39.39,0,0,0,.39.38.38.38,0,0,0,.38-.38V10.15L7,8.27v2.67L5.83,12.06a.38.38,0,0,0,0,.54.39.39,0,0,0,.55,0L7,12v.56L5.83,13.72a.38.38,0,0,0,0,.54.4.4,0,0,0,.27.11.43.43,0,0,0,.28-.11L7,13.68v.61a.39.39,0,0,0,.77,0v-.61l.58.58a.38.38,0,0,0,.54-.54L7.72,12.59V12l.58.57a.39.39,0,0,0,.54,0,.38.38,0,0,0,0-.54L7.72,10.94V8.27l1.89,1.88v1.59a.39.39,0,0,0,.77,0v-.82l.4.41v1.58a.39.39,0,1,0,.77,0V12.1l.43.42a.37.37,0,0,0,.27.12.36.36,0,0,0,.27-.12.38.38,0,0,0,0-.54l-.42-.43h.81a.39.39,0,0,0,.39-.38.4.4,0,0,0-.39-.39H11.33l-.41-.4h.82a.39.39,0,0,0,0-.77H10.15L8.27,7.72h2.67l1.12,1.12a.36.36,0,0,0,.54,0,.38.38,0,0,0,0-.54L12,7.72h.57l1.13,1.12A.36.36,0,0,0,14,9a.37.37,0,0,0,.27-.12.38.38,0,0,0,0-.54l-.58-.58h.61A.38.38,0,0,0,14.67,7.34Z"/></g></g></svg>