<svg xmlns="http://www.w3.org/2000/svg" viewBox="0 0 14.72 13.73"><defs><style>.cls-1{fill:#656d78;}</style></defs><g id="Capa_2" data-name="Capa 2"><g id="Capa_2-2" data-name="Capa 2"><path class="cls-1" d="M11.36,4.58A1.43,1.43,0,1,0,9.93,3.15,1.43,1.43,0,0,0,11.36,4.58Zm0-2.33a.9.9,0,1,1-.9.9A.9.9,0,0,1,11.36,2.25Z"/><path class="cls-1" d="M11.36,4.82A1.67,1.67,0,1,1,13,3.15,1.67,1.67,0,0,1,11.36,4.82Zm0-2.86a1.2,1.2,0,1,0,1.2,1.19A1.19,1.19,0,0,0,11.36,2Zm0,2.33a1.14,1.14,0,1,1,1.13-1.14A1.14,1.14,0,0,1,11.36,4.29Zm0-1.8a.67.67,0,1,0,.67.66A.67.67,0,0,0,11.36,2.49Z"/><path class="cls-1" d="M10.79,4.62a1.45,1.45,0,0,0-1.61.68L7.88,7.58,7.8,7.33h0a.66.66,0,0,0-.6-.42.63.63,0,0,0-.6.86l.22.6-.08,0L4.87,7.73A1.66,1.66,0,0,0,3,8.3L.45,11.75a1.1,1.1,0,0,0,.1,1.43,1.14,1.14,0,0,0,.78.32h.09a1.12,1.12,0,0,0,.8-.46l2.12-3a.41.41,0,0,1,.5-.14L7.32,11a1.69,1.69,0,0,0,.49.13l.45,1.21a.64.64,0,0,0,.6.42.64.64,0,0,0,.52-.27.63.63,0,0,0,.08-.58l-.4-1.09a1.91,1.91,0,0,0,.51-.55l2.1-3.5a1.42,1.42,0,0,0,.1-1.3A1.45,1.45,0,0,0,10.79,4.62ZM7.53,10.51,5.05,9.45a.94.94,0,0,0-1.14.32l-2.12,3a.59.59,0,0,1-.42.24.58.58,0,0,1-.5-.91L3.45,8.62A1.13,1.13,0,0,1,4.7,8.23l1.87.63A1.61,1.61,0,0,0,7,8.92l.59,1.61ZM9,12.18a.15.15,0,0,1-.09,0,.12.12,0,0,1-.11-.07L7.09,7.59s0-.09,0-.1a.1.1,0,0,1,.09,0,.12.12,0,0,1,.1.07L9,12.08A.16.16,0,0,1,9,12.18Zm2.27-5.69L9.12,10a1.42,1.42,0,0,1-.25.3L8.12,8.23,9.64,5.56a.93.93,0,0,1,1-.43.92.92,0,0,1,.56,1.36Z"/><path class="cls-1" d="M1.33,13.73A1.33,1.33,0,0,1,.26,11.61L2.84,8.16a1.89,1.89,0,0,1,2.1-.65l1.5.5-.06-.16a.87.87,0,0,1,.1-.8.89.89,0,0,1,.72-.37.84.84,0,0,1,.71.38L9,5.19a1.69,1.69,0,0,1,1.86-.8h0a1.65,1.65,0,0,1,1.14,1,1.63,1.63,0,0,1-.11,1.5l-2.1,3.5a2.08,2.08,0,0,1-.43.51l.33.93A.87.87,0,0,1,8.86,13,.86.86,0,0,1,8,12.41l-.4-1.08a2.58,2.58,0,0,1-.42-.12L4.75,10.15a.17.17,0,0,0-.22.06l-2.12,3a1.38,1.38,0,0,1-1,.55Zm3-5.85a1.41,1.41,0,0,0-1.13.56L.64,11.89A.84.84,0,0,0,.72,13a.8.8,0,0,0,.68.25A.88.88,0,0,0,2,12.91l2.12-3a.64.64,0,0,1,.78-.22l2.48,1.06a1.58,1.58,0,0,0,.43.11H8l-.43-.15-.09,0h0L5,9.66a.71.71,0,0,0-.86.24L2,12.87a.81.81,0,0,1-.59.33A.83.83,0,0,1,.76,13a.81.81,0,0,1-.07-1.05L3.27,8.48A1.35,1.35,0,0,1,4.77,8l1.87.63a1.08,1.08,0,0,0,.37,0h.12L6.77,8.6l-.11,0L4.79,8A1.31,1.31,0,0,0,4.35,7.88Zm0,.53a.87.87,0,0,0-.71.35L1.06,12.2a.34.34,0,0,0,0,.44.35.35,0,0,0,.26.1.35.35,0,0,0,.25-.14l2.12-3a1.19,1.19,0,0,1,1.42-.4l2.06.89-.35-1a1.43,1.43,0,0,1-.36-.06L4.63,8.45A1,1,0,0,0,4.35,8.41ZM8,10.91l.5,1.34a.42.42,0,0,0,.71.1A.44.44,0,0,0,9.24,12l-.46-1.26.15-.1a1.55,1.55,0,0,0,.44-.48l2.1-3.5a1.2,1.2,0,0,0-.74-1.8h0a1.2,1.2,0,0,0-1.34.58L7.84,8.13l-.26-.72a.41.41,0,0,0-.77.28Zm.88,1.55a.32.32,0,0,1-.32-.23L6.87,7.67a.34.34,0,0,1,0-.31.35.35,0,0,1,.6.07L9.18,12a.38.38,0,0,1,0,.31h0A.35.35,0,0,1,8.86,12.46Zm-.09-1.77-.9-2.48L9.44,5.45a1.13,1.13,0,0,1,1.27-.54,1.15,1.15,0,0,1,.71,1.7h0l-2.1,3.5a1.64,1.64,0,0,1-.3.35ZM8.38,8.25,9,9.82,11,6.37a.69.69,0,0,0,.05-.61.68.68,0,0,0-1.22-.08Z"/><path class="cls-1" d="M14.19,3.45a.74.74,0,0,0-1,.11l-1,1.13a.7.7,0,0,0-.18.55.74.74,0,0,0,.29.51.71.71,0,0,0,.44.15.76.76,0,0,0,.55-.25l1-1.13A.71.71,0,0,0,14.48,4,.76.76,0,0,0,14.19,3.45Zm-.29.72-1,1.13a.2.2,0,0,1-.27,0,.16.16,0,0,1-.08-.14.19.19,0,0,1,0-.16l1-1.12a.19.19,0,0,1,.15-.07.17.17,0,0,1,.12,0A.16.16,0,0,1,14,4,.17.17,0,0,1,13.9,4.17Z"/><path class="cls-1" d="M12.76,6.13a1,1,0,0,1-.58-.19,1,1,0,0,1-.38-.67A1,1,0,0,1,12,4.53L13,3.4a1,1,0,0,1,1.3-.13h0a1,1,0,0,1,.38.67,1,1,0,0,1-.23.73l-1,1.13A1,1,0,0,1,12.76,6.13Zm1-2.59a.48.48,0,0,0-.37.17l-1,1.13a.51.51,0,0,0-.12.38.51.51,0,0,0,.2.35.52.52,0,0,0,.67-.07l1-1.13a.5.5,0,0,0-.08-.73A.47.47,0,0,0,13.75,3.54Zm-1,2.06a.41.41,0,0,1-.26-.09.39.39,0,0,1-.17-.3.4.4,0,0,1,.1-.33l1-1.13A.44.44,0,0,1,14,3.69a.4.4,0,0,1,.17.3.42.42,0,0,1-.1.34h0l-1,1.13A.43.43,0,0,1,12.76,5.6Z"/><path class="cls-1" d="M5.06,5.81c.41.16.79.32,1.13.48a1.53,1.53,0,0,0,.69.17,1.64,1.64,0,0,0,.9-.28,3.52,3.52,0,0,0,1.5-2.83A3.55,3.55,0,0,0,7.78.51,1.57,1.57,0,0,0,6.19.4c-.34.16-.72.32-1.13.48C3.72,1.42,2.2,2,2.2,3.35S3.72,5.28,5.06,5.81Zm.2-4.44A11.54,11.54,0,0,0,6.42.87,1.07,1.07,0,0,1,6.88.76,1.19,1.19,0,0,1,7.5,1,3,3,0,0,1,8.75,3.35,3,3,0,0,1,7.5,5.73a1.06,1.06,0,0,1-1.08.09c-.35-.18-.74-.33-1.16-.5-1.24-.5-2.53-1-2.53-2S4,1.87,5.26,1.37Z"/><path class="cls-1" d="M6.88,6.69a1.74,1.74,0,0,1-.8-.19C5.76,6.34,5.38,6.19,5,6H5c-1.41-.57-3-1.2-3-2.68S3.57,1.23,5,.66C5.39.5,5.76.35,6.08.19A1.83,1.83,0,0,1,7.91.31a3.83,3.83,0,0,1,1.6,3,3.82,3.82,0,0,1-1.6,3A1.93,1.93,0,0,1,6.88,6.69ZM5.15,5.6a11.15,11.15,0,0,1,1.14.49A1.38,1.38,0,0,0,7.66,6,3.33,3.33,0,0,0,9.05,3.35,3.33,3.33,0,0,0,7.66.7,1.38,1.38,0,0,0,6.29.61c-.34.16-.72.32-1.12.48C3.88,1.6,2.43,2.18,2.43,3.35S3.88,5.09,5.15,5.6l-.09.21Zm1.73.56A1.24,1.24,0,0,1,6.32,6a12.42,12.42,0,0,0-1.15-.49C3.86,5,2.5,4.47,2.5,3.35S3.86,1.68,5.17,1.16h0C5.58,1,6,.84,6.32.66a1.32,1.32,0,0,1,1.31.1A3.25,3.25,0,0,1,9,3.35,3.25,3.25,0,0,1,7.63,5.93,1.37,1.37,0,0,1,6.88,6.16ZM5.26,1.37l.08.22C4.17,2.06,3,2.54,3,3.35S4.17,4.64,5.34,5.1c.41.16.82.33,1.19.51a.82.82,0,0,0,.85-.07A2.82,2.82,0,0,0,8.52,3.35,2.81,2.81,0,0,0,7.38,1.16a.81.81,0,0,0-.85-.08c-.37.18-.78.35-1.19.51Z"/></g></g></svg>