<svg xmlns="http://www.w3.org/2000/svg" viewBox="0 0 15.91 11.93"><defs><style>.cls-1{fill:#656d78;}</style></defs><g id="Capa_2" data-name="Capa 2"><g id="Capa_2-2" data-name="Capa 2"><path class="cls-1" d="M9.44,1h-3A.5.5,0,0,1,6,.5H6a.5.5,0,0,1,.5-.5h3a.5.5,0,0,1,.5.5h0A.49.49,0,0,1,9.44,1Z"/><path class="cls-1" d="M1.5,11.93H14.4a1.52,1.52,0,0,0,1.51-1.51V3.48A1.5,1.5,0,0,0,14.4,2H1.5A1.5,1.5,0,0,0,0,3.49v6.94A1.5,1.5,0,0,0,1.5,11.93ZM12.92,3H14.4a.51.51,0,0,1,.51.51v6.94a.5.5,0,0,1-.51.5H12.92ZM4,3h8v8H4ZM1,3.49A.51.51,0,0,1,1.5,3H3v8H1.5a.5.5,0,0,1-.51-.5Z"/><path class="cls-1" d="M9.15,2.33V.47A.49.49,0,0,1,9.65,0h0a.49.49,0,0,1,.5.46V2.33a.49.49,0,0,1-.5.46h0A.49.49,0,0,1,9.15,2.33Z"/><path class="cls-1" d="M6,2.33V.47A.48.48,0,0,1,6.46,0h0A.48.48,0,0,1,7,.47V2.33a.48.48,0,0,1-.5.46h0A.48.48,0,0,1,6,2.33Z"/></g></g></svg>