<svg xmlns="http://www.w3.org/2000/svg" viewBox="0 0 15.11 15.11"><defs><style>.cls-1{fill:#656d78;}</style></defs><g id="Capa_2" data-name="Capa 2"><g id="Capa_2-2" data-name="Capa 2"><path class="cls-1" d="M7.56,15.11a7.56,7.56,0,1,1,7.55-7.55A7.56,7.56,0,0,1,7.56,15.11ZM7.56.94a6.62,6.62,0,1,0,6.61,6.62A6.63,6.63,0,0,0,7.56.94Z"/><path class="cls-1" d="M4.72,10.39a.47.47,0,0,1-.47-.47V5.19a.47.47,0,0,1,.94,0V9.92A.47.47,0,0,1,4.72,10.39Z"/><path class="cls-1" d="M10.39,8H4.72a.48.48,0,0,1,0-.95h5.67a.48.48,0,0,1,0,.95Z"/><circle class="cls-1" cx="4.72" cy="4.9" r="0.94"/><circle class="cls-1" cx="4.72" cy="10.09" r="0.94"/><path class="cls-1" d="M7.56,10.39a.48.48,0,0,1-.48-.47V5.19a.48.48,0,0,1,.48-.47A.47.47,0,0,1,8,5.19V9.92A.47.47,0,0,1,7.56,10.39Z"/><circle class="cls-1" cx="7.56" cy="4.9" r="0.94"/><circle class="cls-1" cx="7.56" cy="10.09" r="0.94"/><path class="cls-1" d="M10.39,7.68c-.26,0-.47-.11-.47-.25V5c0-.14.21-.25.47-.25s.47.11.47.25V7.43C10.86,7.57,10.65,7.68,10.39,7.68Z"/><circle class="cls-1" cx="10.39" cy="4.9" r="0.94"/></g></g></svg>