<svg xmlns="http://www.w3.org/2000/svg" viewBox="0 0 14.5 15.13"><defs><style>.cls-1{fill:#656d78;stroke:#656d78;stroke-miterlimit:10;stroke-width:0.5px;}</style></defs><g id="Capa_2" data-name="Capa 2"><g id="Capa_2-2" data-name="Capa 2"><path class="cls-1" d="M10.46,14.88H1.19a.94.94,0,0,1-.94-.94v-.41a1,1,0,0,1,.26-.66l.69-.73a.39.39,0,0,0,.11-.27V1.53A1.28,1.28,0,0,1,2.59.25H9.2a1.28,1.28,0,0,1,1.28,1.28V12.08a.44.44,0,0,0,.12.28l.52.52a1,1,0,0,1,.28.68v.38A.94.94,0,0,1,10.46,14.88ZM2.59.81a.72.72,0,0,0-.72.72V11.87a1,1,0,0,1-.26.66l-.69.73a.39.39,0,0,0-.11.27v.41a.38.38,0,0,0,.38.38h9.27a.38.38,0,0,0,.38-.38v-.38a.36.36,0,0,0-.12-.28l-.52-.52a1,1,0,0,1-.28-.68V1.53A.72.72,0,0,0,9.2.81Z"/><path class="cls-1" d="M13,11.36a1.21,1.21,0,0,1-1.21-1.21V10c.28-2.74-.22-3.81-.69-4.23a1,1,0,0,0-.86-.26.28.28,0,0,1-.34-.21.28.28,0,0,1,.2-.34,1.63,1.63,0,0,1,1.36.38c.84.72,1.14,2.31.89,4.7v.11a.65.65,0,1,0,1.3,0V5.44A2,2,0,0,1,13,5a1.19,1.19,0,0,1-.35-1.07l-1-.78a.28.28,0,0,1,0-.4.28.28,0,0,1,.39,0l1.15.91a.28.28,0,0,1,.09.34.45.45,0,0,0,0,.45,1.43,1.43,0,0,0,.65.56.3.3,0,0,1,.19,0,.29.29,0,0,1,.13.24v4.93A1.22,1.22,0,0,1,13,11.36Z"/><path class="cls-1" d="M7.54,6.67H4.35A1.43,1.43,0,0,1,2.92,5.25V3.46A1.43,1.43,0,0,1,4.35,2H7.54A1.43,1.43,0,0,1,9,3.46V5.25A1.43,1.43,0,0,1,7.54,6.67ZM4.35,2.6a.85.85,0,0,0-.86.86V5.25a.86.86,0,0,0,.86.86H7.54a.87.87,0,0,0,.86-.86V3.46a.86.86,0,0,0-.86-.86Z"/></g></g></svg>