<svg xmlns="http://www.w3.org/2000/svg" viewBox="0 0 22.73 17.77"><defs><style>.cls-1{fill:#656d78;}</style></defs><g id="Capa_2" data-name="Capa 2"><g id="Capa_2-2" data-name="Capa 2"><path class="cls-1" d="M18.67,17.77H4.07A3.54,3.54,0,0,1,.76,15.51,11.75,11.75,0,0,1,0,11.36a11.37,11.37,0,0,1,22.73,0A11.74,11.74,0,0,1,22,15.51,3.56,3.56,0,0,1,18.67,17.77ZM11.37,1.42a10,10,0,0,0-9.95,9.94A10.49,10.49,0,0,0,2.08,15a2.13,2.13,0,0,0,2,1.35h14.6a2.12,2.12,0,0,0,2-1.35,10.26,10.26,0,0,0,.66-3.64A10,10,0,0,0,11.37,1.42Z"/><path class="cls-1" d="M7.68,6.46,6.59,5.17l-.54.46L7.13,6.91A4.89,4.89,0,0,1,7.68,6.46Z"/><path class="cls-1" d="M11.94,3.56h-.71V5.31c.24,0,.47,0,.71,0Z"/><path class="cls-1" d="M6.18,8,4.74,7.18l-.35.61,1.43.83C5.93,8.41,6.05,8.21,6.18,8Z"/><path class="cls-1" d="M16.69,8.75l1.66-1L18,7.18l-1.64,1C16.47,8.33,16.59,8.54,16.69,8.75Z"/><path class="cls-1" d="M5.33,10,3.69,9.7l-.12.7,1.63.29A5.4,5.4,0,0,1,5.33,10Z"/><path class="cls-1" d="M13.76,5.87l.63-1.71-.67-.25-.62,1.7A4.77,4.77,0,0,1,13.76,5.87Z"/><path class="cls-1" d="M17.26,10.74l1.9-.34L19,9.7l-1.9.34A5.11,5.11,0,0,1,17.26,10.74Z"/><path class="cls-1" d="M15.49,7.06l1.2-1.43-.55-.46L15,6.59A6.06,6.06,0,0,1,15.49,7.06Z"/><path class="cls-1" d="M9.6,5.53,9,3.91l-.66.25.58,1.6C9.15,5.67,9.37,5.6,9.6,5.53Z"/><path class="cls-1" d="M17.12,12.79l1.92.34.12-.7-1.91-.34A5.4,5.4,0,0,1,17.12,12.79Z"/><path class="cls-1" d="M5.21,12.14l-1.64.29.12.7,1.65-.29C5.29,12.61,5.24,12.38,5.21,12.14Z"/><path class="cls-1" d="M11.47,11.37a.69.69,0,0,1-.5-.2.71.71,0,0,1,0-1l5.46-5.49a.7.7,0,0,1,1,0,.71.71,0,0,1,0,1L12,11.17A.76.76,0,0,1,11.47,11.37Z"/><circle class="cls-1" cx="11.47" cy="10.66" r="1.78"/><rect class="cls-1" x="7.81" y="13.54" width="7.1" height="1.42" rx="0.48"/></g></g></svg>