<svg xmlns="http://www.w3.org/2000/svg" viewBox="0 0 148 120"><defs><style>.cls-1{fill:none;}.cls-2{fill:#2480f3;}</style></defs><g id="Capa_2" data-name="Capa 2"><g id="Capa_2-2" data-name="Capa 2"><rect class="cls-1" width="148" height="120"/><path class="cls-2" d="M99.38,41.43l-24-10a2.45,2.45,0,0,0-1.88,0l-24,10a2.45,2.45,0,0,0-1.51,2.27V55.83a41.06,41.06,0,0,0,25.56,38,2.38,2.38,0,0,0,1.85,0,41.06,41.06,0,0,0,25.56-38V43.7A2.45,2.45,0,0,0,99.38,41.43ZM96,55.83A36.18,36.18,0,0,1,74.4,88.94,36.18,36.18,0,0,1,52.82,55.83V45.33l21.58-9,21.59,9ZM71.69,64.1,82.24,53.55A2.45,2.45,0,1,1,85.7,57L73.43,69.3a2.45,2.45,0,0,1-3.47,0L63.1,62.45A2.45,2.45,0,0,1,66.57,59Z"/></g></g></svg>