<svg xmlns="http://www.w3.org/2000/svg" viewBox="0 0 25.2 21.84"><defs><style>.cls-1{fill:#656d78;}</style></defs><g id="Capa_2" data-name="Capa 2"><g id="Capa_2-2" data-name="Capa 2"><g id="Page-1"><g id="_022---Cash" data-name="022---Cash"><path id="Shape" class="cls-1" d="M24.36,4.62H7.14a.42.42,0,0,0,0,.84H9.68a6.37,6.37,0,0,0-3,5.46,6.37,6.37,0,0,0,3,5.46H.84V5.46H5a.42.42,0,0,0,0-.84H.84A.85.85,0,0,0,0,5.46V16.38a.85.85,0,0,0,.84.84H24.36a.85.85,0,0,0,.84-.84V5.46A.85.85,0,0,0,24.36,4.62Zm-16.8,6.3a5.27,5.27,0,0,1,5-5.46,5.27,5.27,0,0,1,5,5.46,5.27,5.27,0,0,1-5,5.46A5.27,5.27,0,0,1,7.56,10.92Zm16.8,5.46H15.52a6.41,6.41,0,0,0,3-5.46,6.41,6.41,0,0,0-3-5.46h8.84Z"/><path id="Shape-2" data-name="Shape" class="cls-1" d="M22.15.09a.84.84,0,0,0-.64,0l-9,3a.44.44,0,0,0-.27.54.42.42,0,0,0,.54.26l9-3,.93,2.77a.44.44,0,0,0,.31.28.41.41,0,0,0,.4-.14.44.44,0,0,0,.09-.41L22.57.58A.82.82,0,0,0,22.15.09Z"/><path id="Shape-3" data-name="Shape" class="cls-1" d="M12.47,18l-9,3L2.5,18.23A.43.43,0,0,0,2,18a.44.44,0,0,0-.27.54l.93,2.76a.85.85,0,0,0,.42.49.78.78,0,0,0,.37.09.86.86,0,0,0,.27-.05l9-3a.42.42,0,0,0,.27-.53.43.43,0,0,0-.54-.27Z"/><path id="Shape-4" data-name="Shape" class="cls-1" d="M13.86,9.45a.42.42,0,1,0,.84,0A2,2,0,0,0,13,7.6v0a.42.42,0,1,0-.84,0v0A2,2,0,0,0,10.5,9.45a2,2,0,0,0,1.68,1.85v2.07a1.06,1.06,0,0,1-.84-1,.42.42,0,1,0-.84,0,2,2,0,0,0,1.68,1.85v0a.42.42,0,0,0,.84,0v0a2,2,0,0,0,1.68-1.85A2,2,0,0,0,13,10.54V8.46A1.09,1.09,0,0,1,13.86,9.45Zm-2.52,0a1.09,1.09,0,0,1,.84-1v2a1.06,1.06,0,0,1-.84-1Zm2.52,2.94a1.06,1.06,0,0,1-.84,1v-2a1.09,1.09,0,0,1,.84,1Z"/><path id="Shape-5" data-name="Shape" class="cls-1" d="M21.42,15.54H23.1a.42.42,0,0,0,.42-.42V13.44A.42.42,0,0,0,23.1,13a.42.42,0,0,0-.42.42V14.7H21.42a.42.42,0,1,0,0,.84Z"/><path id="Shape-6" data-name="Shape" class="cls-1" d="M2.1,13a.42.42,0,0,0-.42.42v1.68a.42.42,0,0,0,.42.42H3.78a.42.42,0,1,0,0-.84H2.52V13.44A.42.42,0,0,0,2.1,13Z"/><path id="Shape-7" data-name="Shape" class="cls-1" d="M3.78,6.3H2.1a.42.42,0,0,0-.42.42V8.4a.42.42,0,0,0,.84,0V7.14H3.78a.42.42,0,0,0,0-.84Z"/><path id="Shape-8" data-name="Shape" class="cls-1" d="M21.42,7.14h1.26V8.4a.42.42,0,0,0,.42.42.42.42,0,0,0,.42-.42V6.72a.42.42,0,0,0-.42-.42H21.42a.42.42,0,0,0,0,.84Z"/></g></g></g></g></svg>