<svg xmlns="http://www.w3.org/2000/svg" viewBox="0 0 82.37 23.49"><defs><style>.cls-1{fill:#fff;}</style></defs><g id="Capa_2" data-name="Capa 2"><g id="Capa_2-2" data-name="Capa 2"><path class="cls-1" d="M56.35,18.13,56,16.08a6.45,6.45,0,0,0-2.41-7C50.44,6.7,43.33,5.66,39.05,5.52c-1.29-1-5.83-4.42-7.9-5.07-2.54-.8-11.5-.68-17.55,1.61-1.94.73-2.82,1.07-3.39,1.3l-1.37.51-.12,0-.28-.24A6.47,6.47,0,0,0,6.9,2.57C5.57,1.89,2,1.76.75,2.55A1.46,1.46,0,0,0,0,3.81,3.19,3.19,0,0,0,.58,5.43a2.75,2.75,0,0,1,.54,1.48A9.15,9.15,0,0,1,.91,8.06c-.6,2.92-2,9.76,4.17,11.16l.21,0a6.39,6.39,0,0,0,11.87.43h0c8.09.1,18.21.14,22.18.15h.14a6.38,6.38,0,0,0,11.56,0h.22l4-.34a1.12,1.12,0,0,0,.81-.44A1.14,1.14,0,0,0,56.35,18.13Zm-45,3.08a4.16,4.16,0,1,1,4.13-4.15A4.14,4.14,0,0,1,11.31,21.21Zm34,0a4.16,4.16,0,1,1,4.13-4.15A4.14,4.14,0,0,1,45.28,21.21Zm8.38-5,.22,1.11-1.54.13c-.25-4-3.32-7.22-7.06-7.22s-6.87,3.24-7.08,7.31c-4.31,0-12.71-.05-19.86-.13-.27-4-3.34-7.18-7.07-7.18a7.3,7.3,0,0,0-7,6.3c-1.55-.89-2.21-2.94-1.17-8A9.2,9.2,0,0,0,3.4,6.91a4.84,4.84,0,0,0-.82-2.57,8.08,8.08,0,0,1,3.29.25,4.59,4.59,0,0,1,1,.76A2.37,2.37,0,0,0,9.62,6L11,5.48,14.4,4.19C20.16,2,28.59,2,30.47,2.62c1.44.45,5.26,3.19,7.48,4.92a1.1,1.1,0,0,0,.68.24c4.79.11,11.17,1.3,13.53,3.11a4.17,4.17,0,0,1,1.56,4.69A1.13,1.13,0,0,0,53.66,16.21Z"/><path class="cls-1" d="M82,16.08a6.45,6.45,0,0,0-2.41-7C76.44,6.7,69.33,5.66,65.05,5.52c-1.29-1-5.83-4.42-7.9-5.07-2.54-.8-11.5-.68-17.55,1.61L37.26,3c.83.59,1.59,1.16,2.15,1.58h.07l.92-.35C46.16,2,54.59,2,56.47,2.62c1.44.45,5.26,3.19,7.48,4.92a1,1,0,0,0,.68.24c4.79.11,11.17,1.3,13.53,3.11a4.17,4.17,0,0,1,1.56,4.69,1.13,1.13,0,0,0-.06.63l.22,1.11-1.54.13c-.25-4-3.32-7.22-7.06-7.22s-6.87,3.24-7.08,7.31l-7,0,.08.43a2.14,2.14,0,0,1-.39,1.7l-.14.15,8.56,0h.14a6.38,6.38,0,0,0,11.56,0h.22l4-.34a1.12,1.12,0,0,0,.81-.44,1.14,1.14,0,0,0,.21-.91ZM71.28,21.21a4.16,4.16,0,1,1,4.12-4.15A4.14,4.14,0,0,1,71.28,21.21Z"/><path class="cls-1" d="M38.94,20.87a4,4,0,0,1-1.63.34,4.09,4.09,0,0,1-1.75-.4l-3.44,0a6.31,6.31,0,0,0,8.32,1.86A7.35,7.35,0,0,1,38.94,20.87Z"/></g></g></svg>