<?xml version="1.0" encoding="UTF-8"?>
<svg id="Capa_2" data-name="Capa 2" xmlns="http://www.w3.org/2000/svg" viewBox="0 0 563.23 563.24">
  <defs>
    <style>
      .cls-1 {
        fill: #3a3e44;
      }

      .cls-1, .cls-2 {
        stroke-width: 0px;
      }

      .cls-2 {
        fill: #fff;
      }
    </style>
  </defs>
  <g id="Capa_1-2" data-name="Capa 1">
    <g>
      <path class="cls-1" d="m0,281.31C.11,126,126.39-.08,281.77,0c155.61.08,281.74,126.52,281.46,282.18-.27,155.34-126.68,281.3-282.06,281.05C125.81,562.99-.11,436.73,0,281.31Zm108.18,0c-.16,0-.32,0-.49,0,0,21.39-.14,42.79.07,64.18.08,8.04.42,16.17,1.65,24.1,5.17,33.44,21.16,59.4,52.88,73.84,15.94,7.26,32.94,10.23,50.33,10.32,43.91.21,87.82.19,131.74-.03,9.53-.05,19.17-.59,28.56-2.14,35.51-5.86,61.81-23.97,74.96-58.55,5.38-14.16,7.64-28.97,7.65-44.1.04-43.72.1-87.45-.06-131.17-.03-8.04-.42-16.17-1.66-24.1-5.58-35.75-23.35-62.44-58.06-76-14.13-5.52-28.95-8.05-44.02-8.12-46.73-.23-93.45-.26-140.18,0-17.19.1-34,3.19-49.71,10.51-35.23,16.4-50.99,46.06-53.34,83.05-1.65,25.97-.32,52.14-.32,78.22Z"/>
      <path class="cls-2" d="m108.18,281.3c0-26.08-1.33-52.24.32-78.22,2.35-36.99,18.11-66.65,53.34-83.05,15.72-7.32,32.53-10.41,49.71-10.51,46.73-.27,93.45-.24,140.18,0,15.07.08,29.89,2.6,44.02,8.12,34.71,13.56,52.48,40.25,58.06,76,1.24,7.93,1.63,16.06,1.66,24.1.15,43.72.1,87.45.06,131.17-.01,15.13-2.27,29.94-7.65,44.1-13.15,34.58-39.45,52.69-74.96,58.55-9.39,1.55-19.03,2.1-28.56,2.14-43.91.22-87.82.24-131.74.03-17.39-.08-34.39-3.06-50.33-10.32-31.73-14.44-47.71-40.4-52.88-73.84-1.23-7.93-1.56-16.06-1.65-24.1-.22-21.39-.07-42.79-.07-64.18.16,0,.32,0,.49,0Zm173.3,139.93c0,.19,0,.38,0,.58,3.94,0,7.88.07,11.82-.01,23.44-.51,46.94-.13,70.29-1.83,26.33-1.92,45.89-15.15,54.58-40.82,3.36-9.93,5.02-20.87,5.16-31.38.56-43.15.28-86.31.18-129.47-.01-6.17-.41-12.38-1.14-18.5-3.41-28.3-21.18-48.5-48.82-54.91-7.61-1.76-15.57-2.62-23.39-2.76-27.39-.5-54.78-.77-82.17-.61-22.87.13-45.82.03-68.6,1.78-26.32,2.02-45.76,15.36-54.42,41.05-3.23,9.6-4.94,20.14-5.07,30.27-.54,43.34-.28,86.69-.18,130.03.01,6.17.21,12.42,1.19,18.5,4.02,25.03,15.67,44.74,41.01,52.87,9.84,3.16,20.54,4.66,30.9,4.99,22.87.73,45.77.23,68.66.23Z"/>
      <path class="cls-1" d="m281.48,421.23c-22.89,0-45.8.5-68.66-.23-10.37-.33-21.06-1.84-30.9-4.99-25.35-8.13-36.99-27.84-41.01-52.87-.98-6.07-1.17-12.33-1.19-18.5-.1-43.34-.36-86.69.18-130.03.13-10.14,1.83-20.68,5.07-30.27,8.66-25.69,28.1-39.03,54.42-41.05,22.78-1.75,45.72-1.65,68.6-1.78,27.39-.16,54.79.11,82.17.61,7.82.14,15.78,1,23.39,2.76,27.64,6.41,45.41,26.6,48.82,54.91.74,6.13,1.13,12.33,1.14,18.5.1,43.16.38,86.32-.18,129.47-.14,10.51-1.8,21.45-5.16,31.38-8.69,25.68-28.25,38.9-54.58,40.82-23.35,1.7-46.85,1.32-70.29,1.83-3.94.09-7.88.01-11.82.01,0-.19,0-.38,0-.58Zm91.67-139.14c.06-50.99-40.55-91.94-91.21-91.98-51.17-.04-91.9,40.71-91.84,91.88.06,50.61,41.08,91.22,92.06,91.14,50.12-.08,90.93-40.91,90.99-91.05Zm.63-73.37c10.09-.01,18.28-8.23,18.19-18.28-.09-10.09-8.27-18.17-18.38-18.13-10.1.04-18.23,8.23-18.18,18.31.05,10.16,8.12,18.11,18.37,18.09Z"/>
      <path class="cls-2" d="m373.15,282.09c-.06,50.13-40.87,90.97-90.99,91.05-50.98.08-92-40.53-92.06-91.14-.06-51.17,40.67-91.92,91.84-91.88,50.67.04,91.27,40.98,91.21,91.98Zm-90.7-59.52c-32.49-.67-59.14,25.24-59.89,58.22-.74,32.38,25.34,59.18,58.24,59.87,32.49.68,59.13-25.22,59.87-58.22.73-32.45-25.28-59.19-58.23-59.87Z"/>
      <path class="cls-2" d="m373.78,208.72c-10.25.01-18.31-7.93-18.37-18.09-.05-10.08,8.08-18.27,18.18-18.31,10.11-.04,18.3,8.03,18.38,18.13.09,10.04-8.1,18.26-18.19,18.28Z"/>
      <path class="cls-1" d="m282.44,222.57c32.95.68,58.96,27.42,58.23,59.87-.75,33-27.38,58.9-59.87,58.22-32.9-.69-58.98-27.49-58.24-59.87.75-32.98,27.4-58.89,59.89-58.22Z"/>
    </g>
  </g>
</svg>