<?xml version="1.0" encoding="UTF-8"?>
<svg id="Capa_2" data-name="Capa 2" xmlns="http://www.w3.org/2000/svg" viewBox="0 0 569.91 569.83">
  <defs>
    <style>
      .cls-1 {
        fill: #3a3e44;
      }

      .cls-1, .cls-2 {
        stroke-width: 0px;
      }

      .cls-2 {
        fill: #fff;
      }
    </style>
  </defs>
  <g id="Capa_1-2" data-name="Capa 1">
    <g>
      <path class="cls-1" d="m569.91,285.08c-.09,157.17-127.81,284.77-285,284.74C127.48,569.8-.2,441.91,0,284.44.2,127.29,128.03-.17,285.27,0c157.22.17,284.72,127.87,284.63,285.08Zm-310.94-37.51c-11.51-2.1-22.68-1.61-33.87.44-56.09,10.27-93.16,65.14-80.86,119.77,12.7,56.42,69.3,91.18,124.77,76.63,46.47-12.19,76.83-51.37,76.83-99.43,0-36.54-.24-73.07-.38-109.61,0-1.91,0-3.81,0-4.66,13.37,6.37,26.09,13.17,39.39,18.57,13.44,5.46,27.79,7.3,42.56,7.05v-52.51c-22.39-.79-41.62-8.32-57.41-23.86-15.95-15.69-23.73-35.02-24.7-57.27h-52.87c0,2.75,0,5.13,0,7.51-.03,70.48-.05,140.96-.1,211.43,0,3.33-.1,6.68-.42,10-2.37,24.32-22.65,42.99-47.04,43.39-24.49.4-45.49-17.85-48.72-42.35-3.11-23.61,12.59-46.99,36.27-52.02,8.42-1.79,17.53-.29,26.56-.29v-52.79Z"/>
      <path class="cls-2" d="m258.97,247.57v52.79c-9.03,0-18.15-1.5-26.56.29-23.68,5.03-39.38,28.41-36.27,52.02,3.23,24.5,24.23,42.75,48.72,42.35,24.39-.4,44.67-19.07,47.04-43.39.32-3.31.42-6.66.42-10,.05-70.48.07-140.96.1-211.43,0-2.38,0-4.76,0-7.51h52.87c.96,22.26,8.75,41.59,24.7,57.27,15.79,15.54,35.02,23.06,57.41,23.86v52.51c-14.77.25-29.12-1.59-42.56-7.05-13.29-5.4-26.02-12.19-39.39-18.57,0,.84,0,2.75,0,4.66.13,36.54.37,73.07.38,109.61,0,48.06-30.36,87.24-76.83,99.43-55.47,14.55-112.07-20.21-124.77-76.63-12.3-54.63,24.77-109.5,80.86-119.77,11.19-2.05,22.37-2.54,33.87-.44Z"/>
    </g>
  </g>
</svg>