<svg xmlns="http://www.w3.org/2000/svg" viewBox="0 0 29.73 29.73"><defs><style>.cls-1{fill:#3a3e44;}.cls-2{fill:#fff;fill-rule:evenodd;}</style></defs><g id="Capa_2" data-name="Capa 2"><g id="Capa_2-2" data-name="Capa 2"><circle class="cls-1" cx="14.87" cy="14.87" r="14.87" transform="translate(-3.02 25.92) rotate(-76.72)"/><path class="cls-2" d="M22.16,11.52c-.13-1.08-.39-1.4-.57-1.54a3.07,3.07,0,0,0-1.54-.36C18.9,9.54,17,9.5,14.86,9.5s-4,0-5.18.12A3.07,3.07,0,0,0,8.14,10c-.18.14-.44.46-.57,1.54a41.51,41.51,0,0,0,0,6.69c.13,1.08.39,1.4.57,1.54a3.07,3.07,0,0,0,1.54.36c1.15.08,3.08.13,5.18.13s4,0,5.19-.13a3.07,3.07,0,0,0,1.54-.36c.18-.14.44-.46.57-1.54a41.51,41.51,0,0,0,0-6.69ZM13.07,17.2h0V12.53l4.49,2.34Z"/></g></g></svg>