<svg xmlns="http://www.w3.org/2000/svg" viewBox="0 0 176 176"><defs><style>.cls-1{fill:none;}.cls-2{fill:#0c7cf5;}</style></defs><g id="Capa_2" data-name="Capa 2"><g id="Capa_1-2" data-name="Capa 1"><rect class="cls-1" width="176" height="176"/><path class="cls-2" d="M123.84,46A45.48,45.48,0,0,0,61.53,29.13a46.22,46.22,0,0,0-16.7,62.79,45.45,45.45,0,0,0,62.31,16.84A46.22,46.22,0,0,0,123.84,46ZM51.38,88.13A38.57,38.57,0,0,1,65.3,35.72a38,38,0,0,1,52,14.06,38.59,38.59,0,0,1-14,52.41A37.91,37.91,0,0,1,51.38,88.13Z"/><polygon class="cls-2" points="118.6 105.94 99 117.37 114.09 143.71 133.7 132.31 118.6 105.94"/><path class="cls-2" d="M135.75,135.89,116.12,147.3a11.3,11.3,0,0,0,15.48,4.19A11.45,11.45,0,0,0,135.75,135.89Z"/><rect class="cls-2" x="64.23" y="63.15" width="8.93" height="25.62"/><rect class="cls-2" x="79.87" y="56.4" width="8.93" height="32.37"/><rect class="cls-2" x="95.5" y="49.64" width="8.93" height="39.13"/></g></g></svg>