<svg xmlns="http://www.w3.org/2000/svg" viewBox="0 0 75.8 28.1"><defs><style>.cls-1{fill:#ebebeb;}</style></defs><g id="Capa_2" data-name="Capa 2"><g id="Capa_2-2" data-name="Capa 2"><path class="cls-1" d="M75.79,16.88a2,2,0,0,0-.83-1.5V11.84a1.71,1.71,0,0,0-.18-.77l-.18-.37a1.76,1.76,0,0,0-.14-.23A5.32,5.32,0,0,0,71.63,8.6C67.12,7.23,57.8,7,57.71,7h0a2.87,2.87,0,0,1-.75-.07,66.16,66.16,0,0,0-8.22-5.36l-.19-.08C43.68-.47,30.62,0,26.74.19a1.71,1.71,0,0,0-1.57,1.26L25,2l0,.13c-.33,1.72-.54,3.06-.62,4L4.93,5.47H4.64l-2.55.33L2,5.84A1.66,1.66,0,0,0,.74,7.58a1.92,1.92,0,0,0,.14.62l.06.13a.88.88,0,0,0,0,.16l-.08.94c0,.05,0,.1,0,.15v4.9A1.74,1.74,0,0,0,0,16v3a1.71,1.71,0,0,0,1.61,1.71l8.37.49a7,7,0,0,0,13.74,1.58l31.73.16A7,7,0,0,0,69,22.83l3.7-.33a1.76,1.76,0,0,0,.74-.25c1.82-1.13,2.29-4.18,2.4-5.09A1.31,1.31,0,0,0,75.79,16.88ZM69.11,20.3a7,7,0,0,0-13.85.11l-31.41-.16a7,7,0,0,0-13.43-1.56L2.5,18.23V16.54a1.65,1.65,0,0,0,.56-.46,1.7,1.7,0,0,0,.32-1.46l0-.2V9.61l.07-.85,0-.08a1.87,1.87,0,0,0,0-.53L4.9,8,25,8.7A1.72,1.72,0,0,0,26.82,7a26.78,26.78,0,0,1,.61-4.33c1.62-.07,5.24-.2,9.08-.14,6.76.11,9.74.73,11,1.24a60,60,0,0,1,7.9,5.16,1.67,1.67,0,0,0,.28.18,4.11,4.11,0,0,0,1.93.37c.4,0,9.21.29,13.25,1.53L71,11a2.85,2.85,0,0,1,1.39.86l.07.14V15.8a1.71,1.71,0,0,0,.79,1.44A5.56,5.56,0,0,1,72.19,20Zm-6.92,5.3a4.47,4.47,0,0,1-4.44-4s0-.08,0-.12,0-.24,0-.36a4.47,4.47,0,1,1,4.47,4.47ZM16.94,16.66a4.47,4.47,0,1,1-4.46,4.47A4.47,4.47,0,0,1,16.94,16.66Z"/></g></g></svg>