<svg xmlns="http://www.w3.org/2000/svg" viewBox="0 0 176 176"><defs><style>.cls-1{fill:none;}.cls-2{fill:#0c7cf5;}</style></defs><g id="Capa_2" data-name="Capa 2"><g id="Capa_1-2" data-name="Capa 1"><rect class="cls-1" width="176" height="176"/><path class="cls-2" d="M88,51.69l18-15h23.54V12.28H70.9V36.71H88ZM75.79,31.82V17.17h48.85V31.82H104.21L92.88,41.26V31.82Z"/><rect class="cls-2" x="80.67" y="22.05" width="4.88" height="4.88"/><rect class="cls-2" x="90.44" y="22.05" width="19.54" height="4.88"/><rect class="cls-2" x="114.87" y="22.05" width="4.88" height="4.88"/><path class="cls-2" d="M136.62,158.83l-2-19.77a17.1,17.1,0,0,0,14.42-16.87V90.44h-9.77V87.07a8.78,8.78,0,0,0-4.76-7.83,14.59,14.59,0,0,0,4.76-10.78V63.58a14.66,14.66,0,1,0-29.31,0v4.88a14.67,14.67,0,0,0,9.66,13.76L106.53,95.33H92.83a9.81,9.81,0,0,0-7-8.76l-10-2.85V81.38H56.25v2.34l-10,2.86A9.79,9.79,0,0,0,39.15,96v9.13H29.38v14.65h4.89v39.08h-22v4.89H163.72v-4.89ZM114.87,68.46V63.58a9.77,9.77,0,0,1,19.54,0v4.88a9.77,9.77,0,1,1-19.54,0Zm19.54,18.61v30.24a7.34,7.34,0,0,1-7.33,7.33H107.54v-4.89h7.33v-11.2l17.3-17.31a7.68,7.68,0,0,0,2.17-4.68A4.18,4.18,0,0,1,134.41,87.07Zm-25.86,13.14,16.3-16.29a2.74,2.74,0,0,1,3.87,3.87L111.41,105.1H85.56a2.45,2.45,0,0,1,0-4.89ZM61.13,82.26a14.3,14.3,0,0,0,9.77,0v2.62C70.3,85.82,68.61,88,66,88s-4.28-2.18-4.89-3.12ZM44,96a4.91,4.91,0,0,1,3.54-4.7L57.64,88.4a10.08,10.08,0,0,0,16.76,0l10.06,2.87a4.86,4.86,0,0,1,3.43,4H85.56a7.25,7.25,0,0,0-6.88,9.77H44Zm-9.77,14H110v4.89H34.27Zm16.16,48.85L52.87,154H88.93l2.45,4.88Zm52.22-34.19H51.36v4.88h51.29v29.31H96.84L92,149.06H49.85L45,158.83H39.15V129.52h7.33v-4.88H39.15v-4.89h63.5Zm4.89,34.19V139.29H120l2,19.54Zm19.31,0-2-19.54h4.86l2,19.54Zm-19.31-24.42v-4.89h19.54a12.23,12.23,0,0,0,12.21-12.21v-22h4.89v26.86A12.23,12.23,0,0,1,132,134.41Z"/><path class="cls-2" d="M67.65,46.08H63.8A15.27,15.27,0,0,0,48.55,61.34V64.9a3.78,3.78,0,0,0,1.43,3,3.66,3.66,0,0,0,.49.31V69A15.23,15.23,0,0,0,56.24,81v2.87a2,2,0,0,1-.13.69c1.18.21,2.37.38,3.59.52a5.41,5.41,0,0,0,.13-1.21V83.1a15.29,15.29,0,0,0,11.78,0v.73A5.41,5.41,0,0,0,71.75,85c1.22-.14,2.41-.31,3.59-.52a2,2,0,0,1-.13-.69V81A15.23,15.23,0,0,0,81,69V65a3.73,3.73,0,0,0,1.92-3.26v-.39A15.27,15.27,0,0,0,67.65,46.08ZM79.3,61.73a.11.11,0,0,1-.08.12C68.45,64,63.05,60,61.23,58.15a1.8,1.8,0,0,0-2.54,2.54c5.58,5.58,13.73,5.68,18.69,5.09V69a11.66,11.66,0,1,1-23.31,0v-.81a10.7,10.7,0,0,0,3.26-2.12,1.8,1.8,0,1,0-2.44-2.64,6.43,6.43,0,0,1-2.67,1.59h0a.28.28,0,0,1,0-.16V61.34A11.67,11.67,0,0,1,63.8,49.68h3.85A11.67,11.67,0,0,1,79.3,61.34Z"/><path class="cls-2" d="M115.66,65.83v0l-2.84-.48V65.2a2.93,2.93,0,0,1-1.52-2.57v-.31a12.06,12.06,0,0,1,12-12h3a12.06,12.06,0,0,1,12,12v2.81a3,3,0,0,1-1.1,2.36h0l-.15.12-.1.06a2.54,2.54,0,0,1-1.32.34,3.08,3.08,0,0,1-1.69-.2v0a8.57,8.57,0,0,1-2.58-1.68A1.42,1.42,0,1,1,133.41,64a5.13,5.13,0,0,0,2.11,1.25h0a.31.31,0,0,0,0-.13V62.32a9.21,9.21,0,0,0-9.2-9.2h-3a9.21,9.21,0,0,0-9.2,9.2v.31a.1.1,0,0,0,.07.1c8.5,1.68,12.76-1.49,14.2-2.93a1.42,1.42,0,0,1,2,2C126,66.22,119.57,66.3,115.66,65.83Z"/></g></g></svg>