<svg xmlns="http://www.w3.org/2000/svg" viewBox="0 0 176 176"><defs><style>.cls-1{fill:none;}.cls-2{fill:#0c7cf5;stroke:#0c7cf5;stroke-miterlimit:10;}</style></defs><g id="Capa_2" data-name="Capa 2"><g id="Capa_1-2" data-name="Capa 1"><rect class="cls-1" width="176" height="176"/><path class="cls-2" d="M75.29,68.61c-.13,2-.21,4.14-.21,6.47,0,10.79,3.22,17.23,8.61,17.23,6.8,0,8.61-8.13,8.61-12.92a2.15,2.15,0,1,0-4.3,0c0,.08-.19,8.61-4.31,8.61-2.49,0-4.3-5.43-4.3-12.92,0-25.1,8.81-28,9.08-28a2.15,2.15,0,0,0-.9-4.21,8.83,8.83,0,0,0-3.86,2.1,4.21,4.21,0,0,1,.13-1.11,4.31,4.31,0,1,1,6.31,4.85A2.15,2.15,0,1,0,92.3,52.4a8.61,8.61,0,0,0-2.07-15.78,8.58,8.58,0,0,0-9.83,12.3c-1.85,3-3.58,7.48-4.54,14.13a21.23,21.23,0,1,1,9.61,6.62,2.15,2.15,0,0,0-1.36,4.08,25.84,25.84,0,1,0-17.64-24.5A26.08,26.08,0,0,0,75.29,68.61Z"/><path class="cls-2" d="M51.4,105.22H68.62c2.51,0,6.78,3.21,10.55,6,4.72,3.55,9.19,6.89,13.13,6.89h12.92a7.56,7.56,0,0,1,4.94,1.52,2.15,2.15,0,1,0,3-3c-.28-.29-2.93-2.78-8-2.78H92.3c-2.51,0-6.78-3.21-10.55-6-4.72-3.55-9.18-6.89-13.13-6.89H51.4a2.15,2.15,0,1,0,0,4.3Z"/><path class="cls-2" d="M117.94,67.16l21.73,21.73v7.72H132l-.89-.89V90.15A2.15,2.15,0,0,0,128.91,88h-2.16V85.85a2.16,2.16,0,0,0-2.15-2.16H119l-.89-.89V77.24A2.16,2.16,0,0,0,116,75.08h-5.57l-.21-.21a2.15,2.15,0,0,0-3,3l.84.84a2.16,2.16,0,0,0,1.52.63h4.3v4.3a2.16,2.16,0,0,0,.63,1.52l2.16,2.16a2.16,2.16,0,0,0,1.52.63h4.31v2.15a2.16,2.16,0,0,0,2.15,2.16h2.15v4.3a2.16,2.16,0,0,0,.63,1.52l2.16,2.16a2.16,2.16,0,0,0,1.52.63h10.76A2.16,2.16,0,0,0,144,98.77V88a2.16,2.16,0,0,0-.63-1.52L121,64.12a2.15,2.15,0,0,0-3,3Z"/><path class="cls-2" d="M34.17,138.6a3.23,3.23,0,1,0-3.23,3.23A3.23,3.23,0,0,0,34.17,138.6Z"/><path class="cls-2" d="M38.48,92.31H25.56a2.15,2.15,0,0,0,0,4.3H38.48a2.15,2.15,0,0,1,2.15,2.15v47.37a2.15,2.15,0,0,1-2.15,2.15H25.56a2.16,2.16,0,0,0,0,4.31H38.48a6.47,6.47,0,0,0,6.46-6.46V98.77A6.46,6.46,0,0,0,38.48,92.31Z"/><path class="cls-2" d="M151.43,113.84a8.58,8.58,0,0,0-11.63-3.23L115,122.67c-3.86,1.93-7.74,1.93-16.27,1.93-8.33,0-21.05-2.1-21.17-2.12a2.15,2.15,0,1,0-.71,4.24c.53.09,13.19,2.19,21.88,2.19,8.94,0,13.43,0,18.17-2.37l24.89-12.13a4.34,4.34,0,0,1,3.27-.43,4.32,4.32,0,0,1,1,7.93L117,140c-.06,0-6.27,3.95-20.35,3.95-12.2,0-31.06-10.39-31.33-10.54s-4.87-2.38-13.88-2.38a2.16,2.16,0,1,0,0,4.31c7.83,0,11.86,1.88,11.87,1.88.81.45,20,11,33.34,11,15.54,0,22.44-4.47,22.67-4.63l29-18.05a8.61,8.61,0,0,0,3.15-11.76Z"/></g></g></svg>