<svg xmlns="http://www.w3.org/2000/svg" viewBox="0 0 69.01 28.76"><defs><style>.cls-1{fill:#ebebeb;}</style></defs><g id="Capa_2" data-name="Capa 2"><g id="Capa_2-2" data-name="Capa 2"><path class="cls-1" d="M69,22.2l-.49-2.52a7.9,7.9,0,0,0-3-8.55c-3.8-2.93-12.5-4.2-17.74-4.37C46.22,5.54,40.67,1.35,38.14.55c-3.12-1-14.08-.83-21.5,2L12.5,4.11l-1.68.63-.14,0-.35-.3A8.34,8.34,0,0,0,8.45,3.14c-1.63-.83-5.95-1-7.53,0A1.82,1.82,0,0,0,0,4.66a3.82,3.82,0,0,0,.72,2,3.45,3.45,0,0,1,.65,1.81,13.49,13.49,0,0,1-.25,1.41c-.74,3.58-2.47,12,5.1,13.66a1.14,1.14,0,0,0,.26,0A7.81,7.81,0,0,0,21,24.08h0c9.91.13,22.29.17,27.16.19h0l.16,0a7.8,7.8,0,0,0,14.15,0l.17,0h.11l5-.41a1.37,1.37,0,0,0,1-.55A1.39,1.39,0,0,0,69,22.2ZM13.85,26a5.09,5.09,0,1,1,5-5.09A5.07,5.07,0,0,1,13.85,26Zm41.58,0a5.09,5.09,0,1,1,5-5.09A5.08,5.08,0,0,1,55.43,26ZM65.7,19.85,66,21.2l-1.88.16c-.31-4.93-4.07-8.83-8.65-8.83s-8.4,4-8.66,9c-5.28,0-15.56-.07-24.32-.17-.33-4.9-4.08-8.78-8.65-8.78a8.93,8.93,0,0,0-8.52,7.71c-1.9-1.09-2.71-3.61-1.43-9.8a11.85,11.85,0,0,0,.31-2,5.91,5.91,0,0,0-1-3.15,10.09,10.09,0,0,1,4,.31,5.81,5.81,0,0,1,1.28.93,2.91,2.91,0,0,0,3.31.81c.75-.27,1.08-.4,1.74-.65S15.27,6,17.63,5.13C24.68,2.46,35,2.48,37.3,3.21c1.76.55,6.44,3.91,9.16,6a1.46,1.46,0,0,0,.83.29c5.87.13,13.67,1.58,16.56,3.8a5.11,5.11,0,0,1,1.92,5.75A1.35,1.35,0,0,0,65.7,19.85Z"/></g></g></svg>