<svg xmlns="http://www.w3.org/2000/svg" viewBox="0 0 73.87 30.25"><defs><style>.cls-1{fill:#ebebeb;}</style></defs><g id="Capa_2" data-name="Capa 2"><g id="Capa_2-2" data-name="Capa 2"><path class="cls-1" d="M73.71,16.28A19.13,19.13,0,0,0,73,13.11l0-.06c-.87-2.11-5.74-3.19-10.38-4-3.68-.61-7.31-1-8.36-1.09A69.58,69.58,0,0,0,43.79,2.19,27.72,27.72,0,0,0,39.93.79C37.26,0,32-.19,23.72.18,17.7.46,12.38,1,12.32,1h0l-6.43.82-2.12.27L5.19,4,2.05,7.67a4,4,0,0,0-1.37,3.4,10.64,10.64,0,0,0,.24,2.09L.46,14.68l.11,1L0,16.35v4.88l2.45,2.06,4.61.48A7.57,7.57,0,0,0,21.76,25H50.83a7.57,7.57,0,0,0,14.34.24h4.29l.17-.05a5.48,5.48,0,0,0,3.42-2.85A10.6,10.6,0,0,0,73.71,16.28ZM58,27.82a5.15,5.15,0,1,1,5.15-5.15A5.16,5.16,0,0,1,58,27.82ZM58,15.1a7.58,7.58,0,0,0-7.57,7.46H22.13a7.57,7.57,0,0,0-15-1.22L3.44,21l-1-.85V17.22l.67-.81-.17-1.5.51-1.69-.09-.34c-.29-1.1-.39-2.91.19-3.3l.14-.09L8.3,4.13,8.16,4l4.42-.57c5.84-.55,22-1.67,26.69-.25l.07,0a23.31,23.31,0,0,1,3.5,1.28,66.74,66.74,0,0,1,10.28,5.74l.25.17.31,0s4.19.38,8.49,1.1c7.3,1.23,8.4,2.31,8.54,2.51.18.58,1.44,4.77.18,7.25a3.11,3.11,0,0,1-1.81,1.58H65.61v-.14A7.58,7.58,0,0,0,58,15.1ZM14.56,17.53a5.15,5.15,0,1,1-5.15,5.14A5.14,5.14,0,0,1,14.56,17.53Z"/></g></g></svg>