<svg xmlns="http://www.w3.org/2000/svg" viewBox="0 0 74.97 22.02"><defs><style>.cls-1{fill:#ebebeb;}</style></defs><g id="Capa_2" data-name="Capa 2"><g id="Capa_2-2" data-name="Capa 2"><path class="cls-1" d="M74.43,12a28.19,28.19,0,0,0-12.1-5,40.88,40.88,0,0,0-6.9-.73A86.11,86.11,0,0,0,45,1.5h0C38.78-.65,31.49.13,31.12.17,24.51.82,11.8,3.68,11,3.86,7.46,4.5,2.7,5.06,2.51,5.08l-.08,0C1,5.34.5,6,.33,6.57A2.35,2.35,0,0,0,1,8.84c.32.39-.23,1.42-.73,2a1.38,1.38,0,0,0-.3,1L.23,14.3a1.37,1.37,0,0,0,.39.84A1.42,1.42,0,0,0,1,16.57L4,19.2a1.37,1.37,0,0,0,.88.35l4.53.15h.5a6.6,6.6,0,0,0,10,0h.62l31.17-.3h.81a6.26,6.26,0,0,0,9.84.38,1.3,1.3,0,0,0,.33.41,1.35,1.35,0,0,0,.9.33,1.53,1.53,0,0,0,.3,0l9.59-2.08a1.39,1.39,0,0,0,1.1-1.36v-.23a1.4,1.4,0,0,0-.52-1.09l.76-2.14A1.39,1.39,0,0,0,74.43,12Zm-16.77-.16a3.88,3.88,0,1,1-3.88,3.88A3.88,3.88,0,0,1,57.66,11.86Zm0-2.38a6.27,6.27,0,0,0-6.26,6.26A6.69,6.69,0,0,0,51.53,17l-30.23.29a6.62,6.62,0,1,0-13-1.9,6.53,6.53,0,0,0,.28,1.88l-3.28-.11-2-1.77A1.4,1.4,0,0,0,3,14.13l-.4-.4-.16-1.68C3.43,10.66,4,8.82,3,7.43c.95-.12,5.18-.63,8.47-1.22l.05,0c.54-.12,13.37-3,19.87-3.65h0c.07,0,7.06-.78,12.85,1.2A83.26,83.26,0,0,1,54.5,8.46a1.38,1.38,0,0,0,.68.18,36.64,36.64,0,0,1,6.7.68A26.54,26.54,0,0,1,72.4,13.48l-.87,2.46a1.18,1.18,0,0,0-.08.49l-6.86,1.49a1.61,1.61,0,0,0-.29-.47,1.48,1.48,0,0,0-.54-.35,6.1,6.1,0,0,0,.15-1.36A6.26,6.26,0,0,0,57.66,9.48ZM15,11.17a4.24,4.24,0,1,1-4.23,4.24A4.24,4.24,0,0,1,15,11.17Z"/></g></g></svg>