<svg xmlns="http://www.w3.org/2000/svg" viewBox="0 0 176 176"><defs><style>.cls-1{fill:none;}.cls-2{fill:#0c7cf5;}</style></defs><g id="Capa_2" data-name="Capa 2"><g id="Capa_1-2" data-name="Capa 1"><rect class="cls-1" width="176" height="176"/><path class="cls-2" d="M47.75,154.15l-4.15-5.84a2.75,2.75,0,0,0-4.49,3.19l4.15,5.84a2.75,2.75,0,0,0,3.84.65,2.75,2.75,0,0,0,.65-3.84Z"/><path class="cls-2" d="M79.52,155.18,75,133.68a40.61,40.61,0,0,0-17.16-25.47l-9.63-6.47A9.68,9.68,0,0,0,35.94,103V69.81a9.22,9.22,0,0,0-18.44,0v42.7A26.66,26.66,0,0,0,22.45,128L27.36,135a2.75,2.75,0,1,0,4.49-3.19l-4.91-6.92A21.2,21.2,0,0,1,23,112.51V69.81a3.71,3.71,0,1,1,7.42,0v33.87a19.23,19.23,0,0,0,5,12.92c.14.17.28.33.43.49l6,6.37,2.84,3,0,0L48.94,131a2.75,2.75,0,1,0,4-3.77l-7-7.4-6.32-6.72,0,0a4.65,4.65,0,0,1,.09-6.09,4.15,4.15,0,0,1,5.42-.69l9.63,6.48a35.05,35.05,0,0,1,14.84,22l4.51,21.5a2.75,2.75,0,1,0,5.39-1.13Z"/><path class="cls-2" d="M37.9,140.29v0a2.76,2.76,0,0,0-4.49,3.2l0,0a2.73,2.73,0,0,0,2.24,1.16,2.75,2.75,0,0,0,2.24-4.35Z"/><path class="cls-2" d="M155.05,62.62a9.22,9.22,0,0,0-15,7.19V103a9.68,9.68,0,0,0-12.28-1.25l-9.63,6.47A40.61,40.61,0,0,0,101,133.68l-4.51,21.5a2.75,2.75,0,1,0,5.39,1.13l4.51-21.5a35.05,35.05,0,0,1,14.84-22l9.63-6.48a4.15,4.15,0,0,1,5.42.69,4.65,4.65,0,0,1,.1,6.08l-.05.06-13.27,14.12a2.75,2.75,0,1,0,4,3.77l13.12-13.94c.15-.16.29-.32.43-.49a19.23,19.23,0,0,0,5-12.92V69.81a3.71,3.71,0,1,1,7.42,0v42.7a21.2,21.2,0,0,1-3.93,12.33l-20.81,29.31a2.76,2.76,0,0,0,2.25,4.35,2.72,2.72,0,0,0,2.24-1.16L153.55,128a26.66,26.66,0,0,0,4.95-15.52V69.81a9.18,9.18,0,0,0-3.45-7.19Z"/><path class="cls-2" d="M122.88,70.28,118,69.11v-.88a12.29,12.29,0,0,0,5.27-10.1V51.76a12.31,12.31,0,0,0-20.32-9.36,16.08,16.08,0,0,0-29.8,0,12.32,12.32,0,0,0-20.35,9.34v6.37a12.32,12.32,0,0,0,5.27,10.1v.88l-4.9,1.17a12.9,12.9,0,0,0-9.93,12.59V88A2.76,2.76,0,0,0,46,90.77H58.63c0,.33,0,.67,0,1v9.9a2.76,2.76,0,0,0,2.76,2.75H77.9a2.76,2.76,0,1,0,0-5.51H75.06V93.23a2.76,2.76,0,0,0-5.51,0v5.69H64.1V91.78a11.41,11.41,0,0,1,8.78-11.13l7.55-1.81,5.06,11.51a2.76,2.76,0,0,0,5,0l5-11.49,7.54,1.8a11.39,11.39,0,0,1,8.78,11.12v7.14h-5.45V93.23a2.76,2.76,0,0,0-5.51,0v5.69H97.82a2.76,2.76,0,0,0,0,5.51h16.83a2.76,2.76,0,0,0,2.76-2.75v-9.9c0-.34,0-.68,0-1h12.69A2.77,2.77,0,0,0,132.82,88V82.87a12.91,12.91,0,0,0-9.94-12.59ZM110.93,45a6.81,6.81,0,0,1,6.8,6.36H113.9a20,20,0,0,1-9.23-2.25A6.82,6.82,0,0,1,110.93,45Zm-6.82,12.78c0-.13,0-.27,0-.4V54.88a25.73,25.73,0,0,0,9.78,1.94h3.85v1.31a6.82,6.82,0,1,1-13.64,0ZM77.46,48.46a10.58,10.58,0,0,1,21-1.68l-4.64-2.73a2.75,2.75,0,0,0-3.5.61,11.88,11.88,0,0,1-9.12,4.25H77.46ZM65.11,45a6.82,6.82,0,0,1,6.26,4.11,20,20,0,0,1-9.24,2.25H58.3A6.83,6.83,0,0,1,65.11,45ZM58.29,56.82h3.84a25.6,25.6,0,0,0,9.79-2v3.26a6.82,6.82,0,1,1-13.63,0ZM71.59,75.3a16.86,16.86,0,0,0-11.7,10H48.73V82.87a7.4,7.4,0,0,1,5.7-7.23l7-1.68a2.74,2.74,0,0,0,2.11-2.68v-.92a13.16,13.16,0,0,0,1.55.1,12.82,12.82,0,0,0,1.53-.1v.91a2.73,2.73,0,0,0,1.26,2.31,2.78,2.78,0,0,0,1,.4L73,75ZM79.27,71a12.64,12.64,0,0,0-2.2-.74L72.15,69.1v-.86a12.37,12.37,0,0,0,2.39-2.18,16.34,16.34,0,0,0,4.73,4.75Zm12,4L88,82.4l-3.23-7.35v-2a16.16,16.16,0,0,0,6.45,0ZM88,67.91A10.59,10.59,0,0,1,77.46,57.33V54.42h3.76a17.32,17.32,0,0,0,11.7-4.52l5.68,3.34v4.49A10.59,10.59,0,0,1,88,67.91ZM96.74,71v-.19a16.07,16.07,0,0,0,4.78-4.76,12.16,12.16,0,0,0,2.37,2.16v.86L99,70.28a12.44,12.44,0,0,0-2.23.75Zm30.57,14.23h-11.2a16.9,16.9,0,0,0-11.71-10L103,75l4.13-1a2.54,2.54,0,0,0,1-.4,2.74,2.74,0,0,0,1.25-2.31v-.91a13.13,13.13,0,0,0,1.54.1,13,13,0,0,0,1.54-.1v.92A2.75,2.75,0,0,0,114.59,74l7,1.68a7.41,7.41,0,0,1,5.71,7.23Z"/><path class="cls-2" d="M90,99.73a2.78,2.78,0,0,0-3.9,0,2.77,2.77,0,0,0-.8,2,2.75,2.75,0,1,0,5.5,0,2.77,2.77,0,0,0-.8-2Z"/><path class="cls-2" d="M88,17.5a2.76,2.76,0,0,0-2.76,2.75v4.12a2.76,2.76,0,1,0,5.51,0V20.25A2.75,2.75,0,0,0,88,17.5Z"/><path class="cls-2" d="M77.85,26.48,75,23.6a2.75,2.75,0,1,0-3.89,3.89L74,30.38a2.75,2.75,0,1,0,3.89-3.9Z"/><path class="cls-2" d="M104.86,23.67a2.74,2.74,0,0,0-3.89,0L98.1,26.54A2.75,2.75,0,1,0,102,30.43l2.87-2.87a2.74,2.74,0,0,0,0-3.89Z"/></g></g></svg>