<svg xmlns="http://www.w3.org/2000/svg" viewBox="0 0 31.72 31.72"><defs><style>.cls-1{fill:#0094ff;}</style></defs><g id="Capa_2" data-name="Capa 2"><g id="Capa_2-2" data-name="Capa 2"><path class="cls-1" d="M15.86,0A15.86,15.86,0,1,0,31.72,15.86,15.88,15.88,0,0,0,15.86,0Zm0,29.12A13.26,13.26,0,1,1,29.12,15.86,13.28,13.28,0,0,1,15.86,29.12Z"/><path class="cls-1" d="M22.72,9.77,13.3,19.19,9,14.88a1.32,1.32,0,0,0-1.84,0,1.3,1.3,0,0,0,0,1.84L12.39,22a1.29,1.29,0,0,0,1.83,0L24.56,11.61a1.3,1.3,0,0,0,0-1.84A1.32,1.32,0,0,0,22.72,9.77Z"/></g></g></svg>