<svg xmlns="http://www.w3.org/2000/svg" viewBox="0 0 37.98 10.67"><defs><style>.cls-1{fill:#005ca3;}.cls-2{fill:#f1a223;}.cls-3{fill:#656d78;}</style></defs><g id="Capa_2" data-name="Capa 2"><g id="Capa_2-2" data-name="Capa 2"><polygon class="cls-1" points="7.78 8.22 6.32 8.22 7.24 2.59 8.7 2.59 7.78 8.22"/><path class="cls-1" d="M5.09,2.59,3.69,6.46l-.17-.83h0L3,3.1a.63.63,0,0,0-.69-.51H0l0,.09a5.43,5.43,0,0,1,1.53.65L2.81,8.22H4.33L6.66,2.59Z"/><path class="cls-1" d="M16.61,8.22H18L16.78,2.59H15.61a.67.67,0,0,0-.68.42L12.74,8.22h1.53l.31-.84h1.86ZM15,6.23l.77-2.11.43,2.11Z"/><path class="cls-1" d="M12.86,3.94l.21-1.21a4.36,4.36,0,0,0-1.32-.24c-.73,0-2.45.32-2.45,1.86s2,1.47,2,2.24-1.82.62-2.42.14L8.69,8a4.16,4.16,0,0,0,1.65.31c1,0,2.51-.51,2.51-1.92s-2-1.6-2-2.24S12.23,3.6,12.86,3.94Z"/><path class="cls-2" d="M3.52,5.63,3,3.1a.63.63,0,0,0-.69-.51H0l0,.09a5.59,5.59,0,0,1,2.17,1.1A4.34,4.34,0,0,1,3.52,5.63Z"/><path class="cls-3" d="M32.92.27a5,5,0,0,0-3.23,1.16,5.34,5.34,0,1,0,0,7.81,5.06,5.06,0,1,0,3.23-9Zm0,8.81a3.76,3.76,0,0,1-2.38-.85,5.3,5.3,0,0,0,0-5.79,3.74,3.74,0,1,1,2.38,6.64Z"/></g></g></svg>