<?xml version="1.0" encoding="UTF-8"?>
<svg id="Capa_2" data-name="Capa 2" xmlns="http://www.w3.org/2000/svg" viewBox="0 0 536.08 752.64">
  <defs>
    <style>
      .cls-1 {
        fill: #003866;
        stroke-width: 0px;
      }
    </style>
  </defs>
  <g id="Capa_1-2" data-name="Capa 1">
    <g>
      <g>
        <path class="cls-1" d="m268.03,536.08C120.24,536.08,0,415.84,0,268.04S120.24,0,268.03,0s268.05,120.24,268.05,268.04-120.24,268.04-268.05,268.04Zm0-511.57c-134.28,0-243.52,109.25-243.52,243.53s109.24,243.53,243.52,243.53,243.53-109.25,243.53-243.53S402.31,24.51,268.03,24.51Z"/>
        <path class="cls-1" d="m116.85,174.7c.62-5.28.74-10.67,1.96-15.8,2.82-11.93,9.15-21.49,20.78-26.55,11.15-4.86,22.32-9.7,33.69-14,9.03-3.41,18.58-.06,23.53,8.2,9.59,16.03,18.99,32.18,28.06,48.51,5.75,10.36,2.12,21.43-8.74,27.75-11.33,6.59-18.22,16.06-17.36,29.26.39,5.98,2.71,12.67,6.25,17.48,23.11,31.35,50.53,58.58,81.69,81.95,14.68,11.01,34.44,7.26,44.69-8.05,1.11-1.66,2.04-3.45,3.14-5.12,5.99-9.03,16.86-12.31,26.31-7.08,16.48,9.12,32.77,18.62,48.94,28.3,8.24,4.94,11.53,14.51,8.08,23.57-4.33,11.36-9.12,22.56-14.11,33.65-6.91,15.36-20.2,21.1-35.89,22.1-27.69,1.78-52.38-8.22-76.19-20.73-40.54-21.3-74.7-50.67-105.04-84.65-22.34-25.01-41.62-52.15-55.35-82.91-7.92-17.74-14.17-35.98-14.44-55.86Z"/>
      </g>
      <g>
        <path class="cls-1" d="m2.13,751.16v-98.19h23.22v78.94h35.43v19.26H2.13Z"/>
        <path class="cls-1" d="m101.98,733.23l1.17,15.88c-3.67,2.21-8.68,3.38-13.97,3.38-11.91,0-18.66-6.61-18.66-18.82v-87.61h22.63v83.35c0,3.52,1.47,5.29,4.26,5.29,1.62,0,2.94-.44,4.56-1.47Z"/>
        <path class="cls-1" d="m167.85,699.42l-.14,31.75c0,2.94,1.32,4.55,3.82,4.55,1.17,0,2.2-.44,3.39-1.18l.73,14.7c-3.09,1.91-7.49,3.23-11.61,3.23-5.73,0-10.74-2.06-13.67-6.03-1.03-1.32-1.92-2.94-2.5-4.7-2.36,6.47-9.55,10.58-18.37,10.58-12.94,0-21.17-8.23-21.17-21.31,0-14.7,11.02-23.37,29.7-23.37,2.79,0,6.03.29,7.94.73v-8.67c0-5.15-2.5-7.94-6.76-7.94-4.85,0-7.35,3.38-7.35,10.29l-20.43-3.09c1.03-14.7,11.91-23.66,28.81-23.66,18.37,0,27.64,8.09,27.64,24.11Zm-21.9,27.64v-7.06c-1.03-.15-2.5-.44-4.26-.44-7.79,0-11.91,3.38-11.91,9.7,0,5.15,2.8,8.23,7.35,8.23,5.45,0,8.82-3.82,8.82-10.44Z"/>
        <path class="cls-1" d="m245.35,690.01c3.09-8.96,11.04-14.7,20.59-14.7,12.78,0,20.43,8.23,20.43,21.9v53.94h-22.63v-47.04c0-6.91-2.5-10.14-7.65-10.14-5.88,0-9.41,5.15-9.41,14.11v43.07h-22.63v-47.04c0-6.91-2.5-10.14-7.79-10.14-5.88,0-9.41,5.15-9.41,14.11v43.07h-22.63v-74.38h19.1l2.5,13.67c2.5-9.41,10.29-15.14,20.13-15.14s16.91,5.44,19.4,14.7Z"/>
        <path class="cls-1" d="m355.8,699.42l-.14,31.75c0,2.94,1.32,4.55,3.82,4.55,1.17,0,2.2-.44,3.39-1.18l.73,14.7c-3.09,1.91-7.49,3.23-11.61,3.23-5.73,0-10.74-2.06-13.67-6.03-1.03-1.32-1.92-2.94-2.5-4.7-2.36,6.47-9.55,10.58-18.37,10.58-12.94,0-21.17-8.23-21.17-21.31,0-14.7,11.02-23.37,29.7-23.37,2.79,0,6.03.29,7.94.73v-8.67c0-5.15-2.5-7.94-6.76-7.94-4.85,0-7.35,3.38-7.35,10.29l-20.43-3.09c1.03-14.7,11.91-23.66,28.81-23.66,18.37,0,27.64,8.09,27.64,24.11Zm-21.9,27.64v-7.06c-1.03-.15-2.5-.44-4.26-.44-7.79,0-11.91,3.38-11.91,9.7,0,5.15,2.8,8.23,7.35,8.23,5.45,0,8.82-3.82,8.82-10.44Z"/>
        <path class="cls-1" d="m436.1,751.16h-19.26l-2.35-13.23c-2.5,9.41-9.71,14.7-19.7,14.7-7.94,0-14.26-3.38-19.11-10.29-4.7-6.91-7.05-16.02-7.05-27.49,0-24.55,10.28-39.54,26.89-39.54,8.82,0,15.44,4.12,17.94,11.02v-40.28h22.63v105.1Zm-22.63-31.45v-13.38c0-8.67-4.27-14.11-10.29-14.11-7.49,0-11.47,7.5-11.47,22.05,0,13.08,4.12,20.72,11.17,20.72,6.32,0,10.59-5.88,10.59-15.28Z"/>
        <path class="cls-1" d="m505.97,699.42l-.14,31.75c0,2.94,1.32,4.55,3.82,4.55,1.17,0,2.2-.44,3.39-1.18l.73,14.7c-3.09,1.91-7.49,3.23-11.61,3.23-5.73,0-10.74-2.06-13.67-6.03-1.03-1.32-1.92-2.94-2.5-4.7-2.36,6.47-9.55,10.58-18.37,10.58-12.94,0-21.17-8.23-21.17-21.31,0-14.7,11.02-23.37,29.7-23.37,2.79,0,6.03.29,7.94.73v-8.67c0-5.15-2.5-7.94-6.76-7.94-4.85,0-7.35,3.38-7.35,10.29l-20.43-3.09c1.03-14.7,11.91-23.66,28.81-23.66,18.37,0,27.64,8.09,27.64,24.11Zm-21.9,27.64v-7.06c-1.03-.15-2.5-.44-4.26-.44-7.79,0-11.91,3.38-11.91,9.7,0,5.15,2.8,8.23,7.35,8.23,5.45,0,8.82-3.82,8.82-10.44Z"/>
      </g>
    </g>
  </g>
</svg>