<svg xmlns="http://www.w3.org/2000/svg" viewBox="0 0 52.97 64.86"><defs><style>.cls-1{fill:#2486fc;}</style></defs><g id="Capa_2" data-name="Capa 2"><g id="Capa_1-2" data-name="Capa 1"><path class="cls-1" d="M4.45,48.25a1,1,0,0,1-.74-.3,1.06,1.06,0,0,1-.25-1.2L7.8,36.84A23,23,0,0,1,3.37,23.21a23.21,23.21,0,1,1,11.45,20l-9.9,4.92A1.12,1.12,0,0,1,4.45,48.25ZM26.58,2.14A21.07,21.07,0,0,0,9.88,36.05,1.05,1.05,0,0,1,10,37.13L6.61,44.9,14.39,41a1.06,1.06,0,0,1,1,.05A21.07,21.07,0,1,0,26.58,2.14Z"/><path class="cls-1" d="M15.25,18a7.71,7.71,0,0,1,2.28-5.51A3.16,3.16,0,0,1,20.69,12a1.85,1.85,0,0,1,.56.86c.59,1.68,1.15,3.35,1.67,5.05a1.65,1.65,0,0,1-.1,1.12,14.07,14.07,0,0,1-1.42,2,1.18,1.18,0,0,0-.21,1.44,16.4,16.4,0,0,0,7.57,7.86.82.82,0,0,0,1.15-.27c.57-.73,1.18-1.43,1.7-2.19a1,1,0,0,1,1.44-.4c1.48.88,3,1.72,4.42,2.66a1.61,1.61,0,0,1,.44,1.21,5.14,5.14,0,0,1-4,5,6.22,6.22,0,0,1-3.52-.21A22.13,22.13,0,0,1,18.2,25.88a19.11,19.11,0,0,1-2.73-6.16C15.36,19.14,15.32,18.54,15.25,18Z"/><path class="cls-1" d="M2.47,59.74l.17,1.12.24-1,1.68-6h1l1.65,6,.23,1,.19-1.15L8.9,53.89H10L8,62.42h-1L5.18,56.21,5,55.56l-.13.65L3.09,62.42h-1L0,53.89H1.12Z"/><path class="cls-1" d="M12.19,56.85A2.31,2.31,0,0,1,14.07,56c1.34,0,2,.75,2,2.27v4.18H15V58.23a1.43,1.43,0,0,0-.31-1,1.27,1.27,0,0,0-1-.33,1.57,1.57,0,0,0-.93.28,2,2,0,0,0-.62.74v4.51H11.11v-9h1.08Z"/><path class="cls-1" d="M21.63,62.42a2.3,2.3,0,0,1-.15-.66,2.41,2.41,0,0,1-1.8.78A2.2,2.2,0,0,1,18.14,62a1.71,1.71,0,0,1-.6-1.34,1.79,1.79,0,0,1,.75-1.54,3.52,3.52,0,0,1,2.12-.55h1.05v-.5a1.18,1.18,0,0,0-.34-.9,1.33,1.33,0,0,0-1-.34,1.6,1.6,0,0,0-1,.29.88.88,0,0,0-.39.71H17.67a1.5,1.5,0,0,1,.33-.91,2.26,2.26,0,0,1,.92-.7A2.92,2.92,0,0,1,20.19,56a2.46,2.46,0,0,1,1.71.55,2,2,0,0,1,.65,1.5v2.92a3.55,3.55,0,0,0,.22,1.39v.09Zm-1.8-.82a1.87,1.87,0,0,0,1-.27,1.49,1.49,0,0,0,.66-.68v-1.3h-.85c-1.32,0-2,.39-2,1.16a1,1,0,0,0,.34.8A1.32,1.32,0,0,0,19.83,61.6Z"/><path class="cls-1" d="M25.72,54.55v1.53H26.9v.84H25.72v3.94a.86.86,0,0,0,.16.57.63.63,0,0,0,.53.19,2.41,2.41,0,0,0,.52-.07v.88a3.51,3.51,0,0,1-.83.11A1.34,1.34,0,0,1,25,62.1a1.92,1.92,0,0,1-.37-1.25V56.92H23.48v-.84h1.15V54.55Z"/><path class="cls-1" d="M31.86,60.74a.8.8,0,0,0-.33-.68,3.3,3.3,0,0,0-1.16-.42,5.67,5.67,0,0,1-1.3-.42,1.74,1.74,0,0,1-.72-.59,1.4,1.4,0,0,1-.23-.8,1.65,1.65,0,0,1,.66-1.32A2.57,2.57,0,0,1,30.46,56a2.66,2.66,0,0,1,1.75.55A1.78,1.78,0,0,1,32.88,58H31.79a1,1,0,0,0-.37-.77,1.46,1.46,0,0,0-1-.32,1.42,1.42,0,0,0-.92.26.79.79,0,0,0-.34.67.67.67,0,0,0,.31.59,3.88,3.88,0,0,0,1.13.38A5.54,5.54,0,0,1,32,59.2a1.86,1.86,0,0,1,.75.6,1.53,1.53,0,0,1,.24.87A1.63,1.63,0,0,1,32.26,62a2.85,2.85,0,0,1-1.76.51,3.19,3.19,0,0,1-1.35-.27,2.21,2.21,0,0,1-.92-.75,1.81,1.81,0,0,1-.33-1.05H29a1.12,1.12,0,0,0,.43.87,1.71,1.71,0,0,0,1.08.32,1.81,1.81,0,0,0,1-.25A.79.79,0,0,0,31.86,60.74Z"/><path class="cls-1" d="M38.27,62.42a2,2,0,0,1-.15-.66,2.45,2.45,0,0,1-1.81.78A2.22,2.22,0,0,1,34.77,62a1.71,1.71,0,0,1-.6-1.34,1.79,1.79,0,0,1,.75-1.54A3.54,3.54,0,0,1,37,58.58H38.1v-.5a1.22,1.22,0,0,0-.34-.9,1.35,1.35,0,0,0-1-.34,1.63,1.63,0,0,0-1,.29.88.88,0,0,0-.39.71H34.3a1.45,1.45,0,0,1,.34-.91,2.23,2.23,0,0,1,.91-.7A3,3,0,0,1,36.82,56a2.5,2.5,0,0,1,1.72.55,1.94,1.94,0,0,1,.64,1.5v2.92a3.74,3.74,0,0,0,.22,1.39v.09Zm-1.8-.82a1.9,1.9,0,0,0,1-.27,1.6,1.6,0,0,0,.66-.68v-1.3h-.85c-1.33,0-2,.39-2,1.16a1,1,0,0,0,.34.8A1.29,1.29,0,0,0,36.47,61.6Z"/><path class="cls-1" d="M46.24,59.33a3.75,3.75,0,0,1-.67,2.33,2.1,2.1,0,0,1-1.79.88A2.34,2.34,0,0,1,42,61.81v3H40.88V56.08h1l.05.71A2.24,2.24,0,0,1,43.76,56a2.14,2.14,0,0,1,1.81.86,3.85,3.85,0,0,1,.67,2.4Zm-1.09-.13a2.82,2.82,0,0,0-.45-1.69,1.48,1.48,0,0,0-1.26-.62,1.61,1.61,0,0,0-1.48.87v3a1.61,1.61,0,0,0,1.49.87A1.46,1.46,0,0,0,44.69,61,3,3,0,0,0,45.15,59.2Z"/><path class="cls-1" d="M53,59.33a3.81,3.81,0,0,1-.66,2.33,2.12,2.12,0,0,1-1.8.88,2.3,2.3,0,0,1-1.81-.73v3H47.61V56.08h1l.06.71A2.22,2.22,0,0,1,50.5,56a2.13,2.13,0,0,1,1.8.86,3.79,3.79,0,0,1,.67,2.4Zm-1.09-.13a2.82,2.82,0,0,0-.45-1.69,1.46,1.46,0,0,0-1.26-.62,1.59,1.59,0,0,0-1.47.87v3a1.59,1.59,0,0,0,1.49.87A1.45,1.45,0,0,0,51.42,61,3,3,0,0,0,51.88,59.2Z"/></g></g></svg>