<svg xmlns="http://www.w3.org/2000/svg" viewBox="0 0 26.95 28.01"><defs><style>.cls-1{fill:#fff;}</style></defs><g id="Capa_2" data-name="Capa 2"><g id="Capa_2-2" data-name="Capa 2"><path class="cls-1" d="M.62,28a.65.65,0,0,1-.43-.17.63.63,0,0,1-.14-.7l2.52-5.75a13.46,13.46,0,1,1,4.07,3.7L.9,28A.67.67,0,0,1,.62,28ZM13.48,1.24A12.25,12.25,0,0,0,1.24,13.48a12.1,12.1,0,0,0,2.54,7.45.64.64,0,0,1,.07.63l-2,4.51L6.4,23.83a.59.59,0,0,1,.6,0A12.24,12.24,0,1,0,13.48,1.24Z"/><path class="cls-1" d="M6.9,10.42a4.45,4.45,0,0,1,1.32-3.2A1.85,1.85,0,0,1,10.05,7a1.13,1.13,0,0,1,.33.51c.34,1,.67,1.94,1,2.93a.88.88,0,0,1-.06.64,8.06,8.06,0,0,1-.82,1.16.68.68,0,0,0-.12.84,9.5,9.5,0,0,0,4.39,4.56.49.49,0,0,0,.67-.15c.33-.43.68-.83,1-1.28s.5-.43.84-.23c.86.51,1.73,1,2.57,1.55a.94.94,0,0,1,.25.7,3,3,0,0,1-2.34,2.88,3.56,3.56,0,0,1-2-.13A12.8,12.8,0,0,1,8.61,15,11,11,0,0,1,7,11.45C7,11.11,6.94,10.77,6.9,10.42Z"/></g></g></svg>