<svg xmlns="http://www.w3.org/2000/svg" viewBox="0 0 26.2 26.2"><defs><style>.cls-1{fill:#fff;}</style></defs><g id="Capa_2" data-name="Capa 2"><g id="Capa_2-2" data-name="Capa 2"><path class="cls-1" d="M5.27,8.83A5.31,5.31,0,0,1,6.84,5,2.19,2.19,0,0,1,9,4.74a1.39,1.39,0,0,1,.39.6c.4,1.16.79,2.32,1.15,3.49a1.13,1.13,0,0,1-.07.77,9.48,9.48,0,0,1-1,1.37.82.82,0,0,0-.14,1A11.3,11.3,0,0,0,14.6,17.4a.58.58,0,0,0,.8-.18c.39-.51.81-1,1.17-1.52s.6-.51,1-.27c1,.6,2.06,1.18,3.05,1.84a1.08,1.08,0,0,1,.31.83,3.58,3.58,0,0,1-2.79,3.43,4.29,4.29,0,0,1-2.43-.15,15.29,15.29,0,0,1-8.4-7.07,13,13,0,0,1-1.89-4.25C5.35,9.66,5.32,9.24,5.27,8.83Z"/><path class="cls-1" d="M13.1,0A13.1,13.1,0,1,0,26.2,13.1,13.09,13.09,0,0,0,13.1,0Zm0,25A11.89,11.89,0,1,1,25,13.1,11.9,11.9,0,0,1,13.1,25Z"/></g></g></svg>