<svg xmlns="http://www.w3.org/2000/svg" viewBox="0 0 45.12 61.89"><defs><style>.cls-1{fill:#2486fc;}</style></defs><g id="Capa_2" data-name="Capa 2"><g id="Capa_1-2" data-name="Capa 1"><path class="cls-1" d="M9.08,15.22a9.18,9.18,0,0,1,2.7-6.56,3.78,3.78,0,0,1,3.77-.49,2.21,2.21,0,0,1,.67,1c.69,2,1.37,4,2,6a1.89,1.89,0,0,1-.12,1.33A17.45,17.45,0,0,1,16.4,18.9a1.39,1.39,0,0,0-.25,1.72,19.53,19.53,0,0,0,9,9.35,1,1,0,0,0,1.38-.32c.67-.87,1.39-1.7,2-2.61.5-.73,1-.88,1.72-.47,1.76,1,3.54,2,5.26,3.17A1.88,1.88,0,0,1,36,31.17a6.13,6.13,0,0,1-4.79,5.9,7.31,7.31,0,0,1-4.19-.25A26.3,26.3,0,0,1,12.59,24.65c-1.35-2.3-2.75-4.56-3.25-7.32C9.21,16.63,9.16,15.92,9.08,15.22Z"/><path class="cls-1" d="M22.56,0A22.56,22.56,0,1,0,45.12,22.56,22.56,22.56,0,0,0,22.56,0Zm0,43A20.47,20.47,0,1,1,43,22.56,20.47,20.47,0,0,1,22.56,43Z"/><path class="cls-1" d="M1.57,60.85h4v.92H.43V53.24H1.57Z"/><path class="cls-1" d="M7.9,61.77H6.82v-9H7.9Z"/><path class="cls-1" d="M13.55,61.77a1.89,1.89,0,0,1-.15-.67,2.46,2.46,0,0,1-1.81.79,2.27,2.27,0,0,1-1.54-.53A1.74,1.74,0,0,1,9.45,60a1.8,1.8,0,0,1,.75-1.54,3.61,3.61,0,0,1,2.12-.55h1.06v-.49a1.26,1.26,0,0,0-.34-.91,1.39,1.39,0,0,0-1-.34,1.57,1.57,0,0,0-1,.3.86.86,0,0,0-.39.71H9.58a1.46,1.46,0,0,1,.34-.92,2.23,2.23,0,0,1,.91-.7,3.13,3.13,0,0,1,1.27-.26,2.5,2.5,0,0,1,1.72.55,2,2,0,0,1,.64,1.51v2.92a3.68,3.68,0,0,0,.22,1.38v.1Zm-1.8-.83a2,2,0,0,0,1-.26,1.68,1.68,0,0,0,.66-.69v-1.3h-.85c-1.33,0-2,.39-2,1.17a1,1,0,0,0,.34.79A1.24,1.24,0,0,0,11.75,60.94Z"/><path class="cls-1" d="M17.18,55.43l0,.7a2.32,2.32,0,0,1,1.88-.82,1.81,1.81,0,0,1,1.81,1,2.54,2.54,0,0,1,.82-.74,2.42,2.42,0,0,1,1.2-.28c1.39,0,2.1.74,2.12,2.21v4.25H24V57.58a1.42,1.42,0,0,0-.31-1,1.36,1.36,0,0,0-1-.34,1.4,1.4,0,0,0-1.47,1.33v4.21H20.05V57.61a1.21,1.21,0,0,0-1.35-1.38,1.45,1.45,0,0,0-1.46.91v4.63H16.15V55.43Z"/><path class="cls-1" d="M30.59,61.77a2.49,2.49,0,0,1-.15-.67,2.43,2.43,0,0,1-1.8.79,2.25,2.25,0,0,1-1.54-.53A1.74,1.74,0,0,1,26.5,60a1.8,1.8,0,0,1,.75-1.54,3.59,3.59,0,0,1,2.12-.55h1.05v-.49a1.22,1.22,0,0,0-.34-.91,1.37,1.37,0,0,0-1-.34,1.54,1.54,0,0,0-1,.3.86.86,0,0,0-.39.71H26.63a1.51,1.51,0,0,1,.33-.92,2.26,2.26,0,0,1,.92-.7,3.07,3.07,0,0,1,1.27-.26,2.46,2.46,0,0,1,1.71.55,2,2,0,0,1,.65,1.51v2.92a3.49,3.49,0,0,0,.22,1.38v.1Zm-1.8-.83a2,2,0,0,0,1-.26,1.56,1.56,0,0,0,.66-.69v-1.3h-.85c-1.33,0-2,.39-2,1.17a1,1,0,0,0,.34.79A1.27,1.27,0,0,0,28.79,60.94Z"/><path class="cls-1" d="M32.94,58.55a3.71,3.71,0,0,1,.69-2.35,2.2,2.2,0,0,1,1.81-.89,2.23,2.23,0,0,1,1.77.76v-3.3h1.08v9h-1l-.06-.68a2.2,2.2,0,0,1-1.81.8A2.17,2.17,0,0,1,33.64,61a3.69,3.69,0,0,1-.7-2.35Zm1.09.12a2.8,2.8,0,0,0,.44,1.69A1.46,1.46,0,0,0,35.7,61,1.59,1.59,0,0,0,37.21,60V57.13a1.6,1.6,0,0,0-1.5-.9,1.45,1.45,0,0,0-1.24.62A3.06,3.06,0,0,0,34,58.67Z"/><path class="cls-1" d="M43.89,61.77a2.09,2.09,0,0,1-.16-.67,2.42,2.42,0,0,1-1.8.79,2.27,2.27,0,0,1-1.54-.53,1.74,1.74,0,0,1-.6-1.35,1.8,1.8,0,0,1,.75-1.54,3.61,3.61,0,0,1,2.12-.55h1.06v-.49a1.26,1.26,0,0,0-.34-.91,1.39,1.39,0,0,0-1-.34,1.57,1.57,0,0,0-1,.3.86.86,0,0,0-.39.71H39.92a1.46,1.46,0,0,1,.34-.92,2.23,2.23,0,0,1,.91-.7,3.13,3.13,0,0,1,1.27-.26,2.5,2.5,0,0,1,1.72.55,2,2,0,0,1,.64,1.51v2.92A3.68,3.68,0,0,0,45,61.67v.1Zm-1.8-.83a2,2,0,0,0,1-.26,1.68,1.68,0,0,0,.66-.69v-1.3h-.85c-1.33,0-2,.39-2,1.17a1,1,0,0,0,.34.79A1.24,1.24,0,0,0,42.09,60.94Z"/></g></g></svg>